<svg xmlns="http://www.w3.org/2000/svg" xmlns:xlink="http://www.w3.org/1999/xlink"><defs><symbol fill="none" viewBox="0 0 32 32" id="ic-brand-binarybot"><path d="M0 6a6 6 0 016-6h20a6 6 0 016 6v20a6 6 0 01-6 6H6a6 6 0 01-6-6V6z" fill="#2A3052" /><path fill-rule="evenodd" clip-rule="evenodd" d="M17.436 16.102a.445.445 0 00-.143-.293 1.08 1.08 0 01-.081-.09c-.037-.042-.079-.09-.128-.137a.195.195 0 00-.044-.04c-.953-1.012-.835-1.662-.823-1.728v-.005a1.392 1.392 0 00-.52-1.093l-.048-.063a.239.239 0 01-.036-.035c.506.141 1.02.251 1.538.329.23.042.465.055.698.04.52 0 .929-.063.956-.182a6.809 6.809 0 01-1.378-.405l-.02-.007c-.489-.19-.571-.221-.891-.326-.418-.138-.867-.334-.867-.334l.49.13c1.408.376 1.968.525 2.71.537a2.6 2.6 0 00.613-.058c.12 0 .48-.102.52-.226a2.997 2.997 0 01-1.013-.16c-1.29-.428-1.85-.722-2.364-.991-.318-.167-.619-.325-1.063-.498-.57-.238-1.16-.424-1.764-.556a3.373 3.373 0 00-1.52 0c-1.587-.373-1.947-.333-2.414-.231a8.031 8.031 0 015.192-1.218V4.89h-4.814a5.333 5.333 0 00-5.333 5.333v11.556a5.333 5.333 0 005.333 5.333h4.822v-3.853a33.882 33.882 0 00-.542-.09c-.527-.085-.856-.137-1.066-.284-.085-.053-.351-.195-.414-.16a.756.756 0 01-.91-.057.68.68 0 01-.085-.076.644.644 0 01-.125-.889c.085-.089-.066-.333-.066-.333s-.445-.662-.747-1.058a3.023 3.023 0 01-.382-1.306 3.696 3.696 0 01-.485-.734 1.831 1.831 0 00-.262-.315 1.7 1.7 0 01-.156-.174.075.075 0 010-.058c.122-.254.3-.477.52-.653.107-.071.565-.347.565-.347a.89.89 0 01.667-.404c.453-.027.907.041 1.333.2l.284.089c.418.136.827.295 1.227.475.221.102.448.19.68.263.587.155 1.627-.32 1.844-.52.356-.325.507-.543.512-.725zm-2.73-2.769l-.288-.377a2.151 2.151 0 011.213 1.306c-1.169.28-.924-.929-.924-.929zm4.845 9.09c.104-.093.206-.19.307-.294a7.965 7.965 0 002.329-5.173h4.924v4.822a5.333 5.333 0 01-5.333 5.333h-4.822v-3.555a4.666 4.666 0 002.595-1.134zm-7.91-2.584a1.836 1.836 0 01-.286-.728C12.382 19.04 12 20 12 20l.204.382a1.835 1.835 0 01-.563-.543zm5.315-14.95h4.822a5.333 5.333 0 015.333 5.333v4.81h-5.013A7.89 7.89 0 0020.888 12l-.048-.044a8.244 8.244 0 00-.982-1.183 7.92 7.92 0 00-2.902-1.857V4.889z" fill="#fff" /></symbol><symbol viewBox="0 0 32 32" id="ic-brand-dbot"><g fill="none" fill-rule="evenodd"><rect width="32" height="32" fill="#FF6444" fill-rule="nonzero" rx="6" /><path d="M13.72 13.26a.845.845 0 100-1.69.845.845 0 000 1.69z" /><path fill="#FFF" fill-rule="nonzero" d="M25.26 15.43v-4.6A4.84 4.84 0 0020.43 6h-3.86v9.43h8.69zM16.57 26h3.86a4.84 4.84 0 004.83-4.83v-4.6h-8.69V26zm-4.775-12.1a2.825 2.825 0 112.77-3.36h.865V6h-3.86a4.84 4.84 0 00-4.83 4.83v10.34A4.84 4.84 0 0011.57 26h3.86V11.605h-.865a2.825 2.825 0 01-2.77 2.295z" /><path d="M0 0h32v32H0z" /></g></symbol><symbol viewBox="0 0 149 16" id="ic-brand-deriv"><g fill="none"><path fill="#21CE99" d="M3.673.002V.02L9.78 7.945.004 15.868v.017h9.872a6.197 6.197 0 006.03-4.785l.817-3.533a6.177 6.177 0 00-1.191-5.229A6.204 6.204 0 0010.695.002H3.673z" data-theme="none" /><path fill="#11825C" d="M9.774 7.96l-4.295 7.925H0z" data-theme="none" /><path fill="var(--fill-color1)" d="M23.757.002h6.156c4.966 0 7.797 3.413 7.014 7.84v.045c-.784 4.44-4.825 7.893-9.79 7.893h-6.164L23.757.002zm3.929 12.64c2.845 0 5.103-1.92 5.596-4.71v-.045c.492-2.793-1.068-4.753-3.925-4.753h-2.685l-1.675 9.508h2.689zM41.637.002h11.92l-.545 3.096h-8.466l-.566 3.2h5.464l-.545 3.084h-5.465l-.585 3.316h8.578l-.545 3.084h-12.03zm23.359 10.136c2.137-.743 3.798-2.347 4.25-4.888v-.045c.262-1.493 0-2.726-.717-3.605C67.674.563 66.214 0 64.207 0H56.98l-2.779 15.77h3.476l2.234-12.638h3.453c1.693 0 2.597.766 2.334 2.253v.044c-.235 1.33-1.364 2.232-3.057 2.232h-2.619l3.782 8.106h4.062l-2.871-5.63zM73.694.002h3.476l-2.779 15.77h-3.476zm6.298 0h3.848l2.167 11.106L92.102.002h3.748l-9.193 15.883H83.57zm44.244 9.873a1.022 1.022 0 00-.352.051 1.226 1.226 0 00-.287.133.775.775 0 00-.213.194l-.052.053v-.365h-.874v3.294h.874v-1.837a.722.722 0 01.182-.52.584.584 0 01.457-.181.522.522 0 01.445.18c.112.15.167.335.156.521v1.863h.874v-2.097a1.298 1.298 0 00-.314-.924 1.156 1.156 0 00-.896-.365zm3.199.025a2.493 2.493 0 00-.678.08c-.187.053-.37.118-.55.194l-.05.028.234.701.064-.025c.144-.051.274-.105.428-.143.15-.038.303-.055.457-.051a.814.814 0 01.535.155.497.497 0 01.17.427 2.53 2.53 0 00-.3-.064 2.48 2.48 0 00-1.018.026 1.093 1.093 0 00-.428.213.945.945 0 00-.288.35 1.165 1.165 0 00-.103.482v-.002c-.001.158.034.314.103.456.066.125.155.236.263.327.11.093.239.16.378.194.148.044.301.066.455.066a1.38 1.38 0 00.642-.143c.111-.06.217-.132.314-.213v.286h.855v-1.94a1.38 1.38 0 00-.365-1.03 1.524 1.524 0 00-1.118-.373zm-.144 2.723a.722.722 0 01-.39-.105.326.326 0 01-.144-.285v-.013a.343.343 0 01.156-.299.893.893 0 01.496-.117c.127 0 .254.012.378.038.105.026.195.039.274.064v.132a.445.445 0 01-.051.233.549.549 0 01-.159.183 1.07 1.07 0 01-.248.13 1.285 1.285 0 01-.312.039zm6.069-.469l-.855-2.213h-.928l1.345 3.217a.602.602 0 01-.156.233.362.362 0 01-.214.066 1.013 1.013 0 01-.194-.026l-.197-.078-.064-.039-.301.664.053.025c.112.06.23.108.35.145.14.04.284.057.428.051.124.004.248-.013.366-.05.109-.04.21-.098.299-.171.096-.083.18-.18.248-.286.08-.138.151-.28.214-.427l1.282-3.332h-.9l-.776 2.22zm5.678.015a1.43 1.43 0 01-.353.273.876.876 0 01-1.235-.47 1.092 1.092 0 01-.066-.365v-.012c0-.242.083-.476.235-.664a.951.951 0 01.26-.196.739.739 0 01.34-.079.882.882 0 01.428.105c.128.071.242.164.34.273l.053.053.548-.587-.039-.05a1.765 1.765 0 00-.536-.406 1.741 1.741 0 00-.77-.156c-.233 0-.464.049-.678.143a2.055 2.055 0 00-.55.365 1.55 1.55 0 00-.352.548 1.9 1.9 0 00-.13.663v.024c-.003.228.041.454.13.663.087.201.206.387.353.549.159.154.345.278.55.364.213.091.444.136.677.13.276.011.55-.047.797-.168.207-.115.392-.265.548-.444l.038-.05-.534-.524-.054.018zm3.85-1.786a1.71 1.71 0 00-.562-.365 1.741 1.741 0 00-.705-.13c-.468 0-.918.182-1.253.508a1.785 1.785 0 00-.366.548c-.089.21-.133.436-.13.663v.024c-.003.228.041.454.13.663.086.204.21.39.366.549a1.713 1.713 0 001.24.495c.242-.002.481-.05.705-.143.21-.083.4-.207.56-.365a1.69 1.69 0 00.366-.548c.09-.21.134-.436.13-.664v-.013a1.612 1.612 0 00-.13-.663 1.35 1.35 0 00-.35-.56zm-1.255 2.163a.777.777 0 01-.35-.079 1.056 1.056 0 01-.289-.213.87.87 0 01-.182-.299 1.148 1.148 0 01-.066-.365v-.012c.002-.242.085-.477.235-.666.081-.078.173-.144.274-.194a.784.784 0 01.366-.08.87.87 0 01.654.293.766.766 0 01.181.299c.042.117.064.24.067.365v.012a1.148 1.148 0 01-.067.365.87.87 0 01-.181.299.806.806 0 01-.276.196.797.797 0 01-.366.08zm6.854-2.332a1.13 1.13 0 00-.855-.339c-.23-.008-.456.05-.652.169-.153.09-.29.205-.406.339a1.046 1.046 0 00-.338-.34 1.193 1.193 0 00-.614-.168.906.906 0 00-.34.051.882.882 0 00-.273.133c-.078.052-.15.113-.214.181a.177.177 0 01-.053.051v-.35h-.888v3.294h.875v-1.837a.773.773 0 01.17-.533.511.511 0 01.428-.181.5.5 0 01.428.168c.112.15.168.334.156.52v1.863h.874v-1.837a.729.729 0 01.17-.533.571.571 0 01.427-.181.514.514 0 01.427.168.782.782 0 01.156.534v1.862h.855v-2.084a1.396 1.396 0 00-.333-.95zm-27.369-.26h1v3.296h-1zm.912-.783a.48.48 0 00-.48-.482.489.489 0 00-.484.482.48.48 0 00.483.482.473.473 0 00.481-.482zm14.07 3.661a.482.482 0 10-.963 0 .482.482 0 00.964 0zm-15.7-1.602a1.229 1.229 0 00-.287-.235 1.183 1.183 0 00-.214-.104l-.051-.026.038-.026.118-.078a.97.97 0 00.357-.5c.038-.122.056-.25.051-.377V9.87a1.053 1.053 0 00-.312-.768c-.274-.273-.667-.405-1.201-.405h-2.048v4.546h2.099a2.94 2.94 0 00.693-.077c.19-.045.372-.124.534-.235.148-.106.268-.244.353-.405.082-.17.122-.357.117-.546v-.013a1.34 1.34 0 00-.064-.416.753.753 0 00-.184-.322zm-2.675-.691V9.485h1.082a.916.916 0 01.55.143c.116.09.184.23.18.377v.013a.448.448 0 01-.213.427c-.179.101-.382.15-.588.143h-1.017v-.04l.006-.01zm2.06 1.354a.46.46 0 01-.213.427c-.184.101-.391.15-.6.143h-1.253v-1.12h1.186c.231-.014.462.035.667.143a.446.446 0 01.214.427v-.02zm11.487-2.005a1.07 1.07 0 00-.744.213c-.124.1-.23.218-.314.352v-.495h-.875v3.294h.875V11.99a1.586 1.586 0 01.079-.52.98.98 0 01.213-.365.93.93 0 01.719-.299h.102v-.9l-.055-.017zm-22.083 2.615a.885.885 0 00.428.628l-.09-.184s.17-.482-.338-.444z" /><path fill="var(--fill-color1)" d="M113.888 7.893a4.667 4.667 0 00-6.59 0 4.644 4.644 0 000 6.577 4.667 4.667 0 006.59 0 4.657 4.657 0 000-6.577zm-.483 6.11c-.054.051-.105.103-.156.143-1.123.911-1.984.455-1.997.455-.588-.118-.877-.118-1.045-.214-.039-.028-.17-.104-.214-.079a.392.392 0 01-.456-.025l-.04-.04a.332.332 0 01-.064-.442c.038-.039-.039-.169-.039-.169s-.214-.326-.365-.523a1.58 1.58 0 01-.197-.64 2.45 2.45 0 01-.248-.352c-.038-.05-.092-.104-.13-.155a.6.6 0 01-.08-.092v-.026a.854.854 0 01.261-.326c.054-.039.276-.169.276-.169a.456.456 0 01.338-.196c.223-.013.446.023.654.105l.143.04c.235.077.443.169.614.233.11.052.223.096.34.132.286.077.808-.158.912-.262a.68.68 0 00.261-.35.234.234 0 00-.066-.145.924.924 0 01-.103-.118l-.027-.025c-.496-.52-.404-.854-.404-.854a.69.69 0 00-.261-.546l-.026-.025-.013-.013c.249.071.502.128.757.168.112.023.227.027.34.013.26-.013.455-.025.468-.092a5.115 5.115 0 01-.678-.194c-.248-.091-.286-.104-.457-.17a3.853 3.853 0 01-.428-.169c.888.235 1.174.326 1.578.326.101.004.203-.005.301-.027.052-.013.236-.051.261-.118a1.555 1.555 0 01-.496-.076c-1.03-.34-1.122-.508-1.697-.73a4.783 4.783 0 00-.874-.273 2.011 2.011 0 00-.757 0c-.783-.184-.966-.17-1.202-.117a3.984 3.984 0 015.443 1.12l.013.025c.435.647.667 1.41.667 2.189a3.761 3.761 0 01-1.107 2.803zm-2.61-4.495c.241.1.427.3.508.549-.496.117-.391-.39-.391-.39l-.118-.159zM101.882.06h.319v15.77h-.319zm5.898 2.26c.233 0 .417-.058.552-.175a.568.568 0 00.203-.45v-.01c0-.207-.068-.362-.205-.468-.137-.105-.32-.157-.55-.157h-.715v1.26h.715zM106.45.5h1.38c.203 0 .387.027.552.083.166.055.305.134.42.237.116.103.204.227.265.37.062.143.093.303.093.48v.01a1.075 1.075 0 01-.41.89c-.127.1-.275.176-.445.227-.17.052-.352.078-.545.078h-.695V4h-.615V.5zm5.02 2.995a1.154 1.154 0 00.85-.363c.103-.111.184-.242.243-.392.058-.15.087-.31.087-.48v-.01c0-.17-.03-.33-.088-.482a1.185 1.185 0 00-.623-.663 1.146 1.146 0 00-.479-.1 1.154 1.154 0 00-.85.363 1.225 1.225 0 00-.242.392 1.3 1.3 0 00-.088.48v.01c0 .17.03.33.088.482a1.185 1.185 0 00.622.663c.147.067.307.1.48.1zm-.01.565a1.87 1.87 0 01-.74-.142 1.758 1.758 0 01-.95-.96 1.812 1.812 0 01-.135-.698v-.01c0-.247.045-.48.135-.698.09-.218.217-.41.38-.575a1.829 1.829 0 011.32-.537c.27 0 .517.047.74.143a1.758 1.758 0 01.95.96c.09.218.135.45.135.697v.01a1.804 1.804 0 01-.515 1.272 1.829 1.829 0 01-1.32.538zM113.77.5h.665l.835 2.595.86-2.605h.52l.86 2.605.835-2.595h.645l-1.22 3.525h-.53l-.86-2.515-.86 2.515h-.53L113.77.5zm5.85 0h2.595v.55h-1.98v.91h1.755v.55h-1.755v.94h2.005V4h-2.62V.5zm4.865 1.735c.22 0 .395-.052.525-.157a.52.52 0 00.195-.428v-.01c0-.19-.063-.334-.19-.432-.127-.099-.305-.148-.535-.148h-.895v1.175h.9zM122.97.5h1.56c.22 0 .415.03.585.093.17.061.312.147.425.257.093.097.165.208.215.335.05.127.075.267.075.42v.01c0 .143-.02.272-.063.387a1.013 1.013 0 01-.434.53c-.102.062-.215.11-.338.143L125.94 4h-.725l-.86-1.22h-.77V4h-.615V.5zm3.615 0h2.595v.55h-1.98v.91h1.755v.55H127.2v.94h2.005V4h-2.62V.5zm4.655 2.94c.183 0 .35-.03.5-.087a1.089 1.089 0 00.627-.621c.059-.145.088-.302.088-.472v-.01c0-.17-.03-.328-.088-.475a1.103 1.103 0 00-.244-.377 1.123 1.123 0 00-.383-.248c-.15-.06-.317-.09-.5-.09h-.69v2.38h.69zM129.935.5h1.305c.273 0 .524.044.752.132.229.089.425.211.59.368.166.157.293.34.383.552.09.212.135.441.135.688v.01c0 .247-.045.477-.135.69a1.63 1.63 0 01-.382.555 1.81 1.81 0 01-.59.37c-.229.09-.48.135-.753.135h-1.305V.5zm7.035 2.955c.21 0 .375-.04.495-.12.12-.08.18-.2.18-.36v-.01c0-.15-.06-.266-.178-.347-.118-.082-.299-.123-.542-.123h-.975v.96h1.02zm-.18-1.48c.2 0 .36-.04.48-.118.12-.078.18-.197.18-.357v-.01c0-.14-.052-.25-.157-.327-.106-.079-.258-.118-.458-.118h-.885v.93h.84zM135.345.5h1.57c.403 0 .708.103.915.31.157.157.235.35.235.58v.01a.816.816 0 01-.153.498.778.778 0 01-.16.162 1.364 1.364 0 01-.187.12c.103.037.197.08.282.127a.909.909 0 01.22.173.7.7 0 01.143.235c.033.09.05.195.05.315v.01c0 .157-.03.295-.093.415a.824.824 0 01-.262.3c-.113.08-.25.14-.41.183-.16.041-.337.062-.53.062h-1.62V.5zm4.64 2.12L138.595.5h.725l.98 1.55.99-1.55h.705l-1.39 2.105V4h-.62V2.62zm2.465.695h.665V4h-.665v-.685zm0-1.955h.665v.685h-.665V1.36z" /></g></symbol><symbol fill="none" viewBox="0 0 32 32" id="ic-brand-deriv-apps"><path d="M0 3a3 3 0 013-3h9a3 3 0 013 3v9a3 3 0 01-3 3H3a3 3 0 01-3-3V3z" fill="#FF444F" /><path fill-rule="evenodd" clip-rule="evenodd" d="M3.168 4.365l.5-1.561L7.44 7.44l-3.874 4.71-.402-1.673 2.5-3.042-2.496-3.07zM4.43 2.804h2.785a4.631 4.631 0 014.575 4.673 4.631 4.631 0 01-4.58 4.673H4.33l1.13-1.373h1.75a3.271 3.271 0 000-6.543H5.596L4.43 2.804z" fill="#fff" /><path d="M17 3a3 3 0 013-3h9a3 3 0 013 3v9a3 3 0 01-3 3h-9a3 3 0 01-3-3V3z" fill="#2A3052" /><path fill-rule="evenodd" clip-rule="evenodd" d="M22.569 5.333a1.618 1.618 0 00.881 2.03l1.104.496.35 1.728-2.058-.933a3.034 3.034 0 012.025-5.683c.166.041.328.097.485.166l2.104.957-1.617.794-1.062-.482a1.572 1.572 0 00-.243-.082 1.618 1.618 0 00-1.97 1.01zm1.543.118l2.059.933a3.03 3.03 0 01-2.506 5.514l-2.106-.957 1.617-.794 1.052.484c.078.034.16.062.243.082a1.618 1.618 0 001.088-3.038l-1.106-.507-.341-1.717z" fill="#fff" /><path d="M17 20a3 3 0 013-3h9a3 3 0 013 3v9a3 3 0 01-3 3h-9a3 3 0 01-3-3v-9z" fill="#FF6444" /><path fill-rule="evenodd" clip-rule="evenodd" d="M21.206 22.277a1.324 1.324 0 002.621.163h.406v6.747h-1.81a2.269 2.269 0 01-2.264-2.264v-4.846a2.269 2.269 0 012.264-2.265h1.81v2.129h-.406a1.324 1.324 0 00-2.621.336zm7.635 1.956v-2.156a2.269 2.269 0 00-2.264-2.265h-1.81v4.42h4.074zm-4.074 4.954h1.81a2.269 2.269 0 002.264-2.264v-2.156h-4.074v4.42z" fill="#fff" /><path d="M0 20a3 3 0 013-3h9a3 3 0 013 3v9a3 3 0 01-3 3H3a3 3 0 01-3-3v-9z" fill="#2A3052" /><path fill-rule="evenodd" clip-rule="evenodd" d="M8.173 24.548a.209.209 0 00-.067-.138.516.516 0 01-.038-.041.86.86 0 00-.08-.084c-.447-.474-.392-.779-.386-.81v-.002a.652.652 0 00-.244-.513l-.023-.029a.116.116 0 01-.016-.016c.237.066.477.117.72.154.108.02.218.026.328.018.243 0 .435-.029.448-.085a3.194 3.194 0 01-.646-.19l-.009-.003c-.23-.088-.268-.103-.418-.153a5.506 5.506 0 01-.407-.156l.23.061c.66.176.923.246 1.27.252.097.002.194-.007.288-.028.056 0 .225-.047.244-.106a1.405 1.405 0 01-.475-.075 6.355 6.355 0 01-1.108-.464c-.15-.079-.29-.152-.499-.234a4.782 4.782 0 00-.827-.26 1.579 1.579 0 00-.712 0c-.744-.175-.913-.156-1.131-.108a3.765 3.765 0 012.433-.571v-1.675H4.792a2.5 2.5 0 00-2.5 2.5v5.416a2.5 2.5 0 002.5 2.5h2.26v-1.806c-.094-.017-.179-.03-.254-.042-.247-.04-.401-.064-.5-.133-.04-.025-.165-.092-.194-.075a.355.355 0 01-.427-.027.32.32 0 01-.04-.035.302.302 0 01-.058-.417c.04-.042-.031-.156-.031-.156s-.208-.31-.35-.496a1.417 1.417 0 01-.18-.613 1.734 1.734 0 01-.226-.343.855.855 0 00-.123-.148.79.79 0 01-.073-.082.035.035 0 010-.027.877.877 0 01.244-.306c.05-.033.264-.162.264-.162a.417.417 0 01.313-.19c.212-.012.425.02.625.094l.133.041c.196.064.388.139.575.223.104.048.21.089.319.123.275.073.762-.15.864-.244.167-.152.238-.254.24-.34zm-1.28-1.298l-.135-.177a1.008 1.008 0 01.57.612c-.549.132-.434-.435-.434-.435zm2.272 4.26a3.733 3.733 0 001.235-2.563h2.308v2.261a2.5 2.5 0 01-2.5 2.5h-2.26v-1.666c.45-.047.876-.233 1.217-.532zM5.457 26.3a.86.86 0 01-.134-.342c.481-.033.302.417.302.417l.096.18a.86.86 0 01-.264-.255zm2.49-7.008h2.261a2.5 2.5 0 012.5 2.5v2.254h-2.35a3.699 3.699 0 00-.566-1.421l-.023-.02a3.866 3.866 0 00-.46-.555 3.712 3.712 0 00-1.361-.87v-1.888z" fill="#fff" /></symbol><symbol fill="none" viewBox="0 0 33 33" id="ic-brand-derivgo"><g clip-path="url(#ic-brand-derivgo_a)"><path d="M.8 6.5c0-3.31 2.69-6 6-6h20c3.31 0 6 2.69 6 6v20c0 3.31-2.69 6-6 6h-20c-3.31 0-6-2.69-6-6v-20Z" fill="url(#ic-brand-derivgo_b)" /><path d="m6.77 12.5 3.06 4-4.91 4h4.96c1.45 0 2.7-1 3.03-2.41l.41-1.78a3.105 3.105 0 0 0-3.03-3.81H6.76h.01Z" fill="url(#ic-brand-derivgo_c)" /><path d="m9.83 16.5-2.18 4H4.92l4.91-4Z" fill="#CC2E3D" /><path d="M28.47 14.48c-.3-.8-.92-1.43-1.72-1.74-.44-.17-.9-.25-1.37-.25-.38 0-.76.05-1.13.16-.35.1-.69.26-1 .46-.31.2-.59.44-.84.72-.25.29-.47.6-.64.95-.18.36-.31.74-.4 1.13l-.03.14h-3.76l-.34 1.61h1.71c-.05.08-.1.15-.15.22-.18.23-.4.43-.65.57-.24.13-.51.2-.78.2-.19 0-.38-.03-.56-.11-.16-.07-.3-.17-.42-.3a1.49 1.49 0 0 1-.28-.49c-.07-.21-.1-.43-.1-.66 0-.38.05-.75.17-1.11.1-.32.25-.62.45-.88.18-.23.4-.43.65-.57.24-.13.51-.2.78-.2a1.289 1.289 0 0 1 .97.41c.12.14.22.31.28.49l1.9-.75c-.3-.8-.92-1.43-1.71-1.73-.44-.17-.9-.25-1.37-.25-.38 0-.76.05-1.13.16-.35.1-.69.26-1 .46-.31.2-.59.44-.84.72-.25.29-.47.6-.64.95-.18.36-.31.74-.4 1.14-.1.43-.14.86-.14 1.3 0 .44.08.88.24 1.29.15.39.38.75.68 1.05.3.3.66.53 1.05.69.43.17.9.25 1.36.25.38 0 .76-.05 1.13-.16.71-.21 1.35-.61 1.83-1.17.25-.29.47-.6.64-.94.14-.27.25-.55.33-.85.01.39.09.77.23 1.14.15.39.38.75.68 1.05.3.3.66.53 1.05.69.43.17.9.25 1.36.25.38 0 .76-.05 1.13-.16.71-.21 1.35-.61 1.83-1.17.25-.29.47-.6.64-.94.18-.36.31-.75.4-1.14.09-.43.14-.86.14-1.3 0-.44-.08-.88-.23-1.29v-.04Zm-1.96 2.53c-.1.32-.25.61-.45.88-.18.23-.4.43-.65.57-.24.13-.51.2-.78.2-.19 0-.38-.03-.56-.11-.16-.07-.3-.17-.42-.3a1.49 1.49 0 0 1-.28-.49c-.07-.21-.1-.43-.1-.66 0-.38.05-.75.17-1.11.1-.32.25-.62.45-.88.18-.23.4-.43.66-.57.24-.13.51-.2.78-.2a1.289 1.289 0 0 1 .97.41c.12.14.22.31.28.49.07.21.1.43.1.66 0 .38-.05.76-.17 1.12v-.01Z" fill="#fff" /></g><defs></defs></symbol><linearGradient id="ic-brand-derivgo_b" x1="16.8" y1="32.5" x2="16.8" y2=".5" gradientUnits="userSpaceOnUse"><stop /><stop offset="1" stop-color="#58595B" /></linearGradient><linearGradient id="ic-brand-derivgo_c" x1="10.281" y1="11.12" x2="8.691" y2="21.17" gradientUnits="userSpaceOnUse"><stop stop-color="#FF6444" /><stop offset="1" stop-color="#FF444F" /></linearGradient><clipPath id="ic-brand-derivgo_a"><path fill="#fff" transform="translate(.8 .5)" d="M0 0h32v32H0z" /></clipPath><symbol viewBox="0 0 32 32" id="ic-brand-dmt5"><g fill="none" fill-rule="evenodd"><rect width="32" height="32" fill="#85ACB0" fill-rule="nonzero" rx="6" /><path fill="#FFF" fill-rule="nonzero" d="M18.575 10.745l-2.28-4.565a.33.33 0 00-.59 0l-2.265 4.53L16 15.88l2.575-5.135zm-5.69 3.285l1.47 2.97-.22.43-1 2H10.19l1.59-3.175 1.105-2.21v-.015zm0-2.2l-2 4-2.305 4.61h5.15L15 17.855l.455-.855-2.565-5.185-.005.015zm5.86 9.56l2.29 4.61h4.635a.33.33 0 00.295-.5L23.9 21.39h-5.155zm.38-7.335l1.095 2.185 1.59 3.175h-2.94L17.66 17l1.465-2.935v-.01zm0-2.195L16.56 17l1.695 3.42h5.15L21.1 15.795l-2-3.945.025.01zm-5.87 9.53H8.1l-2.065 4.135a.33.33 0 00.295.5h4.62l2.305-4.635zm3.775.99L18.34 25h-4.69l1.32-2.635h2.06v.015zm.615-1.015H14.36L12.055 26h7.88l-2.29-4.61v-.025z" /><path d="M0 0h32v32H0z" /><path d="M0 0h32v32H0z" /></g></symbol><symbol fill="none" viewBox="0 0 32 32" id="ic-brand-dmt5-financial"><path d="M0 6a6 6 0 016-6h20a6 6 0 016 6v20a6 6 0 01-6 6H6a6 6 0 01-6-6V6z" fill="#FF6444" /><path fill-rule="evenodd" clip-rule="evenodd" d="M6.322 20.66a1.854 1.854 0 002.996-2.092l4.231-4.232a1.854 1.854 0 001.556 0l2.559 2.559a1.854 1.854 0 002.995 2.092 1.854 1.854 0 00.368-2.092l2.559-2.56a1.854 1.854 0 002.092-2.995 1.854 1.854 0 00-2.996 2.092l-2.559 2.56a1.854 1.854 0 00-1.556 0l-2.559-2.56a1.854 1.854 0 10-3.362 0l-4.232 4.232a1.854 1.854 0 00-2.092 2.996z" fill="#fff" /></symbol><symbol fill="none" viewBox="0 0 32 32" id="ic-brand-dmt5-financial-stp"><path d="M0 6a6 6 0 016-6h20a6 6 0 016 6v20a6 6 0 01-6 6H6a6 6 0 01-6-6V6z" fill="#FF444F" /><path fill-rule="evenodd" clip-rule="evenodd" d="M6.322 20.66a1.854 1.854 0 002.996-2.092l4.231-4.232a1.854 1.854 0 001.556 0l2.559 2.559a1.854 1.854 0 002.995 2.092 1.854 1.854 0 00.368-2.092l2.559-2.56a1.854 1.854 0 002.092-2.995 1.854 1.854 0 00-2.996 2.092l-2.559 2.56a1.854 1.854 0 00-1.556 0l-2.559-2.56a1.854 1.854 0 10-3.362 0l-4.232 4.232a1.854 1.854 0 00-2.092 2.996z" fill="#fff" /></symbol><symbol fill="none" viewBox="0 0 32 32" id="ic-brand-dmt5-synthetics"><path d="M0 6a6 6 0 016-6h20a6 6 0 016 6v20a6 6 0 01-6 6H6a6 6 0 01-6-6V6z" fill="#85ACB0" /><path fill-rule="evenodd" clip-rule="evenodd" d="M20.967 23.203l-3.653-6.432h2.424l.652-1.307h-3.142L20.96 9.02l3.712 6.444h-2.825l-.653 1.307h3.478l-3.705 6.432zM7.564 16.771h7.424l-.939 1.666.72 1.33 1.383-2.4 3.692 6.502h-7.438l1.659-2.88-.72-1.329-2.069 3.555-3.712-6.444zm3.78-7.869l1.875 3.296.848-1.145-1.526-2.687h7.29l-3.671 6.372-1.39-2.446-.847 1.146 1.147 2.026H7.564l3.78-6.562zm14.835 6.562l-4.465-7.751a1.304 1.304 0 00-1.13-.654h-8.931c-.466 0-.897.249-1.13.654l-4.466 7.75a1.312 1.312 0 000 1.308l4.466 7.752c.233.404.664.654 1.13.654h8.93c.467 0 .897-.25 1.13-.654l4.466-7.752a1.312 1.312 0 000-1.307z" fill="#fff" /></symbol><symbol viewBox="0 0 32 32" id="ic-brand-dtrader"><g fill="none" fill-rule="evenodd"><path d="M26 0a6 6 0 016 6v20a6 6 0 01-6 6H6a6 6 0 01-6-6V6a6 6 0 016-6h20z" fill="#FF444F" /><path fill="#FFF" d="M7.826 5.982L6.76 9.312l5.324 6.55-5.334 6.49.858 3.569 8.264-10.05z" /><path d="M15.393 5.982H9.45l2.484 3.05h3.448a6.979 6.979 0 016.839 6.98c0 3.8-3.04 6.902-6.839 6.978h-3.734l-2.41 2.93h6.144c5.449-.06 9.82-4.52 9.77-9.969.05-5.445-4.315-9.903-9.76-9.97" fill="#FFF" /></g></symbol><symbol fill="none" viewBox="0 0 32 32" id="ic-brand-dxtrade"><path d="M0 6a6 6 0 016-6h20a6 6 0 016 6v20a6 6 0 01-6 6H6a6 6 0 01-6-6V6z" fill="#1A1A1A" /><path d="M6.705 10.5l4.212 5.5-6.75 5.5h6.822a4.278 4.278 0 004.167-3.316l.565-2.447a4.275 4.275 0 00-4.167-5.237H6.705z" fill="var(--brand-red-coral)" /><path d="M10.917 16l-3 5.5h-3.75l6.75-5.5z" fill="#CC2F3E" /><path d="M20.526 10.5H17.27l2.563 5.5-4.503 5.5h3.258l4.5-5.5-2.562-5.5zM24.702 10.5h3.295l-3.907 4.726-1.181-2.535 1.793-2.191zM22.76 21.5l-1.019-2.189 2.076-2.535 2.201 4.724H22.76z" fill="#fff" /><defs></defs></symbol><linearGradient id="ic-brand-dxtrade_paint0_linear" x1="11.536" y1="8.605" x2="9.345" y2="22.425" gradientUnits="userSpaceOnUse"><stop stop-color="#F26447" /><stop offset="1" stop-color="#EF4852" /></linearGradient><symbol viewBox="0 0 32 32" id="ic-brand-smarttrader"><g fill="none" fill-rule="evenodd"><path d="M5.998 0h20.004A5.998 5.998 0 0132 5.998v20.004A5.998 5.998 0 0126.002 32H5.998A5.998 5.998 0 010 26.002V5.998A5.998 5.998 0 015.998 0" fill="#2A3052" /><path d="M19.564 13.619l-4.392-1.99.728 3.662 2.359 1.082a3.451 3.451 0 01-2.322 6.482 3.05 3.05 0 01-.517-.176l-2.244-1.032-3.45 1.694 4.492 2.043a6.466 6.466 0 005.346-11.765z" fill="#FFF" fill-rule="nonzero" /><path d="M13.76 15.708a3.451 3.451 0 012.322-6.484c.177.044.35.103.517.175l2.265 1.03 3.451-1.695-4.49-2.042a6.604 6.604 0 00-1.034-.355 6.472 6.472 0 00-4.32 12.126l4.392 1.989-.747-3.687-2.356-1.057z" fill="#FFF" fill-rule="nonzero" /></g></symbol></defs></svg>