<svg xmlns="http://www.w3.org/2000/svg" xmlns:xlink="http://www.w3.org/1999/xlink"><defs><symbol fill="none" viewBox="0 0 128 128" id="ic-wallet-clear-funds"><path fill="var(--general-main-2)" d="M0 0h128v128H0z" /><path fill="#85ACB0" fill-rule="evenodd" d="M23.206 62.517h56.155a5.4 5.4 0 015.401 5.4v41.591a5.402 5.402 0 01-5.4 5.401h-60.87a5.4 5.4 0 01-5.401-5.401v-51.75a8.456 8.456 0 018.433-8.5h15.804l-.664 3.675h-14.94a4.892 4.892 0 00-4.959 4.493c-.199 3.077 2.39 5.09 6.441 5.09zm48.298-2.944l.641-3.697 5.91.023-.642 3.674h-5.91zm-51.434-.517a1.838 1.838 0 011.3-3.136h14.785l-.642 3.674H21.37c-.487 0-.954-.193-1.299-.538z" clip-rule="evenodd" /><path fill="#B6CDD0" fill-rule="evenodd" d="M53.708 20.97l1.372-7.88h30.545L78.587 53h-6.043l5.644-32.03h-24.48zM38.61 59.575l6.22-35.26h29.195l-6.22 35.26H38.612zm22.223-21.382h3.697a4.756 4.756 0 00-4.117-5.467l.62-3.586h-4.427l-.642 3.564a7.26 7.26 0 00-5.999 5.688c-.509 2.9.864 4.715 4.206 5.423l2.368.532c2.258.53 3.099.996 2.855 2.434-.243 1.439-1.726 2.435-3.962 2.435-2.235 0-3.519-.996-3.519-2.523h-3.851a4.826 4.826 0 004.427 5.555l-.642 3.542h4.427l.62-3.564a7.392 7.392 0 006.507-5.954c.62-2.966-.753-4.604-4.427-5.4l-2.214-.488c-2.147-.509-2.943-1.15-2.722-2.324a3.43 3.43 0 013.719-2.368c1.925 0 3.076.996 3.076 2.501z" clip-rule="evenodd" /><path fill="#B6CDD0" d="M69.711 93.151a4.427 4.427 0 100-8.854 4.427 4.427 0 000 8.854z" /><path fill="#FF444F" d="M102.647 88.082h12.262l-18.97 26.827-18.968-26.827h12.262V61.787h13.414v26.295z" /></symbol><symbol fill="none" viewBox="0 0 64 40" id="ic-wallet-credit"><path fill-rule="evenodd" clip-rule="evenodd" d="M12.6 9.5h15.6c.993 0 1.8.807 1.8 1.8v1.731H10.8V11.3c0-.993.807-1.8 1.8-1.8zm38.68 5.138c.107.102.276.153.507.153.23 0 .397-.05.5-.153a.553.553 0 00.161-.408v-.169a.527.527 0 00-.161-.4c-.103-.107-.27-.161-.5-.161-.23 0-.4.054-.507.161a.54.54 0 00-.154.4v.17c0 .163.051.3.154.407zm1.076.584h-1.138v4.036h1.138v-4.036zm-3.34 3.36h-.038c-.03.107-.08.21-.146.307a1.047 1.047 0 01-.569.4c-.118.04-.24.061-.369.061-.512 0-.9-.18-1.16-.538-.262-.364-.393-.889-.393-1.576s.13-1.21.392-1.568c.262-.359.649-.538 1.161-.538.261 0 .492.071.692.215a.94.94 0 01.392.553h.038V13.57h1.138v5.69h-1.138v-.678zm-.745-.154a.868.868 0 00.53-.154.519.519 0 00.215-.438v-1.192a.499.499 0 00-.215-.43.839.839 0 00-.53-.162.706.706 0 00-.538.23c-.139.15-.208.352-.208.608v.7c0 .256.07.461.208.615a.717.717 0 00.538.223zm-11.895.922c-.364 0-.692-.056-.984-.169a2.01 2.01 0 01-.746-.515 2.415 2.415 0 01-.477-.853 3.848 3.848 0 01-.169-1.2c0-.45.056-.85.17-1.199.112-.353.27-.648.476-.884a1.97 1.97 0 01.745-.546c.293-.123.62-.184.985-.184.497 0 .907.102 1.23.307.322.2.581.518.776.954l-1.007.522a1.157 1.157 0 00-.338-.538c-.149-.138-.37-.207-.661-.207-.344 0-.62.112-.83.338-.206.22-.308.543-.308.969v.86c0 .426.102.751.307.977.21.22.487.33.83.33.288 0 .516-.076.685-.23.174-.159.302-.349.384-.569l.953.553c-.2.41-.463.728-.791.954-.323.22-.733.33-1.23.33zm2.778-.092v-4.036h1.137v.876h.039a1.2 1.2 0 01.307-.607.946.946 0 01.308-.192c.118-.051.256-.077.415-.077h.2v1.06h-.285c-.333 0-.581.044-.745.132-.16.087-.239.248-.239.484v2.36h-1.137zm3.931-.054c.241.098.515.146.823.146.369 0 .697-.059.984-.177a1.79 1.79 0 00.707-.491l-.569-.708a2.399 2.399 0 01-.415.346c-.149.092-.34.139-.577.139-.307 0-.533-.077-.676-.231-.144-.159-.215-.372-.215-.638v-.062h2.59v-.338c0-.272-.035-.53-.107-.776a1.747 1.747 0 00-.33-.662 1.576 1.576 0 00-.585-.453 1.965 1.965 0 00-.853-.17c-.303 0-.572.052-.808.155a1.616 1.616 0 00-.6.422c-.158.185-.279.408-.36.67a2.817 2.817 0 00-.124.86c0 .323.041.615.123.877.088.261.213.484.377.668.17.18.374.32.615.423zm.254-3.006a.684.684 0 01.546-.23c.23 0 .4.077.507.23.113.149.17.346.17.592v.07h-1.415v-.062c0-.251.064-.451.192-.6zm11.493 3.06c-.394 0-.694-.1-.9-.3-.199-.2-.299-.492-.299-.876v-1.976h-.569v-.884h.285c.153 0 .258-.036.315-.108a.537.537 0 00.084-.323v-.66h1.023v1.091h.8v.884h-.8v2.268h.738v.884h-.677zM35.93 21.057L34 26.411h.938l1.93-5.354h-.938zm3.211.042h2.022c.354 0 .677.057.969.17.292.112.54.281.745.507.205.22.364.5.477.838.113.333.17.722.17 1.168 0 .446-.057.838-.17 1.176a2.345 2.345 0 01-.477.838c-.205.22-.453.387-.745.5-.292.113-.615.17-.969.17h-2.022v-5.367zm2.022 4.328c.349 0 .623-.097.823-.292.2-.195.3-.507.3-.938v-.83c0-.43-.1-.743-.3-.938-.2-.194-.474-.292-.823-.292h-.853v3.29h.853zm4.215.984c.24.098.515.146.822.146.37 0 .697-.058.984-.176a1.79 1.79 0 00.708-.492l-.57-.708a2.398 2.398 0 01-.414.346c-.149.093-.341.139-.577.139-.308 0-.533-.077-.677-.23-.143-.16-.215-.372-.215-.639v-.062h2.591v-.338c0-.271-.036-.53-.108-.776a1.747 1.747 0 00-.33-.661 1.574 1.574 0 00-.584-.454 1.963 1.963 0 00-.854-.169c-.302 0-.571.051-.807.154a1.616 1.616 0 00-.6.422c-.158.185-.279.408-.36.67a2.817 2.817 0 00-.124.86c0 .323.041.615.123.877.087.261.213.484.377.669.169.179.374.32.615.422zm.254-3.006a.685.685 0 01.545-.23c.23 0 .4.077.508.23.112.15.169.346.169.592v.07h-1.415v-.062c0-.251.064-.45.193-.6zm3.359-2.629h1.138v2.33h.038a.95.95 0 01.385-.554 1.19 1.19 0 01.7-.215c.512 0 .899.18 1.16.538.261.359.392.882.392 1.568 0 .687-.13 1.212-.392 1.576-.261.36-.648.539-1.16.539-.134 0-.26-.021-.378-.062a1.17 1.17 0 01-.322-.154 1.056 1.056 0 01-.384-.553h-.04v.676h-1.137v-5.689zm1.883 4.859a.693.693 0 00.53-.223c.144-.154.216-.359.216-.615v-.7c0-.256-.072-.458-.215-.607a.682.682 0 00-.53-.23.872.872 0 00-.539.16.505.505 0 00-.207.431v1.192c0 .184.069.33.207.438a.903.903 0 00.538.154zm2.835-3.79c.108.102.277.154.508.154.23 0 .397-.052.5-.154a.552.552 0 00.16-.407v-.17a.527.527 0 00-.16-.4c-.103-.107-.27-.16-.5-.16-.231 0-.4.053-.508.16a.54.54 0 00-.154.4v.17c0 .164.052.3.154.407zm1.076.584h-1.137v4.036h1.137V22.43zm2.477 4.036c-.395 0-.694-.1-.9-.3-.2-.2-.3-.492-.3-.876v-1.976h-.568v-.884h.284c.154 0 .26-.036.316-.107a.538.538 0 00.084-.323v-.661h1.023v1.091H58v.884h-.8v2.268h.738v.884h-.676zM10.8 16.1h12.6c1.323 0 2.4 1.077 2.4 2.4v4.8h2.4c.993 0 1.8-.807 1.8-1.8v-6.528H10.8V16.1zm11.202 2.919h-2.517a1.086 1.086 0 100 2.172h2.517a1.086 1.086 0 100-2.172zM10.8 16.7h12.6c.993 0 1.8.807 1.8 1.8v10.2c0 .993-.807 1.8-1.8 1.8H7.8c-.993 0-1.8-.807-1.8-1.8V18.5c0-.993.807-1.8 1.8-1.8h3zm-.9 2.355h-.537v2.1H9.9a.583.583 0 00.582-.582v-.936a.583.583 0 00-.582-.582zm-1.461 0a.583.583 0 00-.582.582v.273h1.119v-.855h-.537zm.534 1.245H7.857v.273c0 .321.261.582.582.582h.534V20.3zm-1.116 7.683H10.8v-.9H7.857v.9zm4.182 0h2.943v-.9h-2.943v.9zm4.179 0h2.943v-.9h-2.943v.9zm4.182 0h2.943v-.9H20.4v.9zm-.915-6.192h2.517a1.686 1.686 0 100-3.372h-2.517c-.93 0-1.686.756-1.686 1.686 0 .93.756 1.686 1.686 1.686z" fill="#fff" /></symbol><symbol fill="none" viewBox="0 0 72 45" id="ic-wallet-credit-debit-dark"><path d="M40.922 21.77c-.409 0-.778-.064-1.107-.191a2.26 2.26 0 01-.838-.58 2.72 2.72 0 01-.537-.96 4.331 4.331 0 01-.19-1.349c0-.507.063-.957.19-1.349.127-.398.306-.73.537-.995.23-.27.51-.475.838-.614a2.827 2.827 0 011.108-.207c.559 0 1.02.115 1.383.346.364.225.655.582.874 1.072l-1.133.588a1.3 1.3 0 00-.38-.605c-.168-.156-.416-.234-.745-.234-.386 0-.697.127-.934.38-.23.249-.346.612-.346 1.09v.97c0 .478.116.844.346 1.098.237.248.548.372.934.372.323 0 .58-.087.77-.26.196-.179.34-.392.433-.64l1.072.623c-.225.461-.522.819-.89 1.072-.364.248-.825.372-1.385.372zM44.048 21.665v-4.54h1.28v.986h.043a1.347 1.347 0 01.346-.684c.098-.092.213-.164.346-.216.133-.057.288-.086.467-.086h.225v1.193h-.32c-.375 0-.655.05-.84.147-.178.098-.267.28-.267.545v2.655h-1.28zM49.396 21.77c-.346 0-.654-.056-.925-.165a2.03 2.03 0 01-.692-.476 2.133 2.133 0 01-.424-.752 3.288 3.288 0 01-.138-.986c0-.358.046-.68.138-.969a2.1 2.1 0 01.407-.752c.184-.208.409-.367.674-.476.265-.115.568-.173.908-.173.375 0 .695.063.96.19.271.127.49.297.658.51.173.214.296.462.371.744.081.277.122.568.122.874v.38H48.54v.07c0 .3.08.539.242.717.162.173.415.26.761.26.266 0 .482-.052.649-.156.167-.11.323-.24.467-.389l.64.796c-.202.236-.467.42-.796.553a2.894 2.894 0 01-1.107.2zm-.026-3.806c-.26 0-.464.086-.614.26-.144.166-.216.391-.216.674v.069h1.591v-.078c0-.277-.063-.499-.19-.666-.121-.173-.311-.26-.57-.26zM55.143 20.904H55.1c-.034.121-.09.237-.164.346a1.178 1.178 0 01-.64.45c-.133.046-.271.07-.415.07-.577 0-1.012-.203-1.306-.606-.294-.41-.441-1-.441-1.773 0-.773.147-1.361.44-1.765.295-.403.73-.605 1.307-.605.294 0 .553.08.778.242.23.162.378.37.441.623h.043v-2.62h1.28v6.4h-1.28v-.762zm-.839-.173c.243 0 .442-.057.597-.173a.584.584 0 00.242-.493v-1.34a.561.561 0 00-.242-.485c-.155-.12-.354-.181-.597-.181a.794.794 0 00-.605.26c-.156.166-.233.394-.233.683v.787c0 .288.077.518.233.691.162.168.363.251.605.251zM58.26 16.64c-.26 0-.45-.057-.57-.172a.638.638 0 01-.173-.459v-.19c0-.185.057-.335.173-.45.12-.121.31-.181.57-.181.26 0 .447.06.563.181a.593.593 0 01.181.45v.19c0 .185-.06.337-.181.459-.116.115-.303.172-.563.172zm-.64.485h1.28v4.54h-1.28v-4.54zM61.686 21.665c-.444 0-.78-.112-1.011-.337-.225-.225-.338-.553-.338-.986V18.12h-.64v-.994h.32c.173 0 .291-.04.355-.121a.605.605 0 00.095-.364v-.743h1.15v1.228h.9v.994h-.9v2.552h.83v.994h-.76zM38.25 29.713l2.17-6.024h1.056l-2.17 6.024H38.25zM44.034 23.737h2.274c.398 0 .761.063 1.09.19.329.127.608.317.839.57.23.249.41.563.536.943.127.375.19.813.19 1.315s-.063.943-.19 1.323a2.637 2.637 0 01-.536.943 2.22 2.22 0 01-.839.562c-.329.127-.692.19-1.09.19h-2.274v-6.036zm2.274 4.869c.392 0 .7-.11.926-.329.225-.219.337-.57.337-1.055v-.934c0-.484-.112-.836-.337-1.055-.225-.22-.534-.329-.926-.329h-.96v3.702h.96zM51.975 29.877c-.346 0-.654-.055-.925-.164a2.03 2.03 0 01-.692-.476 2.13 2.13 0 01-.424-.752 3.287 3.287 0 01-.138-.986c0-.358.046-.68.138-.969.093-.294.228-.545.407-.752.184-.208.41-.366.674-.476.266-.115.568-.173.908-.173.375 0 .695.063.96.19.271.127.49.297.658.51.173.214.297.462.372.744.08.277.12.568.12.874v.38H51.12v.07c0 .3.08.539.242.718.162.172.416.259.761.259.266 0 .482-.052.65-.156.166-.11.322-.239.466-.389l.64.796c-.202.236-.467.42-.796.553a2.892 2.892 0 01-1.107.2zm-.026-3.805c-.259 0-.464.086-.614.26-.144.166-.216.391-.216.674v.069h1.592v-.078c0-.277-.064-.499-.19-.666-.122-.173-.312-.26-.572-.26zM55.115 23.373h1.28v2.62h.043a1.07 1.07 0 01.432-.622 1.34 1.34 0 01.788-.242c.576 0 1.011.202 1.306.605.294.404.44.992.44 1.765 0 .772-.147 1.363-.44 1.773-.295.403-.73.605-1.306.605-.15 0-.292-.023-.424-.069a1.318 1.318 0 01-.364-.173 1.189 1.189 0 01-.432-.623h-.043v.761h-1.28v-6.4zm2.119 5.466a.78.78 0 00.596-.25c.162-.173.243-.404.243-.692v-.787c0-.289-.081-.516-.242-.684a.767.767 0 00-.597-.26.98.98 0 00-.606.183.568.568 0 00-.233.484v1.34c0 .208.078.372.233.493.162.116.364.173.606.173zM60.994 24.748c-.26 0-.45-.057-.571-.172a.638.638 0 01-.173-.459v-.19c0-.185.058-.334.173-.45.121-.12.311-.181.57-.181.26 0 .448.06.563.181a.593.593 0 01.181.45v.19c0 .185-.06.337-.181.459-.115.115-.303.172-.562.172zm-.64.485h1.28v4.54h-1.28v-4.54zM64.42 29.773c-.444 0-.782-.112-1.012-.337-.225-.225-.337-.553-.337-.986v-2.223h-.64v-.994h.32c.172 0 .29-.04.354-.121a.605.605 0 00.095-.363v-.744h1.15v1.228h.9v.994h-.9v2.552h.83v.994h-.76z" fill="#fff" /><path d="M31.725 10.688h-17.55a2.027 2.027 0 00-2.025 2.024v11.476c0 1.117.908 2.024 2.025 2.024h17.55a2.027 2.027 0 002.025-2.024V12.713a2.027 2.027 0 00-2.025-2.025zm2.025 6.493h-21.6v-2.518h21.6v2.518z" fill="#FF444F" /><path d="M26.325 18.788H8.775a2.027 2.027 0 00-2.025 2.025v11.475c0 1.117.908 2.025 2.025 2.025h17.55a2.027 2.027 0 002.025-2.025V20.813a2.027 2.027 0 00-2.025-2.025z" fill="#122D96" /><path fill-rule="evenodd" clip-rule="evenodd" d="M28.35 26.213V20.813a2.027 2.027 0 00-2.025-2.025H12.15v5.4c0 1.117.908 2.025 2.025 2.025H28.35z" fill="#122D96" /><path fill-rule="evenodd" clip-rule="evenodd" d="M24.752 21.396a1.221 1.221 0 110 2.444H21.92a1.222 1.222 0 110-2.444h2.832zm0-.675H21.92c-1.046 0-1.896.85-1.896 1.897 0 1.046.85 1.897 1.896 1.897h2.832a1.896 1.896 0 100-3.794zM8.839 30.468h3.31v1.013H8.84v-1.013zm4.705 0h3.31v1.013h-3.31v-1.013zm8.012 0h-3.311v1.013h3.31v-1.013zm1.394 0h3.31v1.013h-3.31v-1.013zm-14.111-7.63v.306c0 .362.293.655.655.655h.6v-.962H8.84zm0-.747c0-.36.293-.654.655-.654h.604v.962h-1.26v-.308zm1.694 1.708h.604a.653.653 0 00.655-.655v-1.053a.655.655 0 00-.655-.654h-.604v2.362z" fill="#fff" /></symbol><symbol fill="none" viewBox="0 0 43 28" id="ic-wallet-credit-debit-light"><path d="M24.223 13.575c-.237 0-.452-.037-.642-.11a1.312 1.312 0 01-.487-.337 1.578 1.578 0 01-.312-.558 2.514 2.514 0 01-.11-.783c0-.294.037-.555.11-.783.074-.23.178-.423.312-.577.133-.158.296-.277.487-.357.19-.08.405-.12.642-.12.325 0 .593.067.803.2.211.131.38.339.508.623l-.658.341a.756.756 0 00-.221-.351c-.097-.09-.241-.136-.432-.136a.706.706 0 00-.542.221c-.134.144-.2.355-.2.633v.562c0 .278.066.49.2.638a.715.715 0 00.542.216.64.64 0 00.447-.15.94.94 0 00.251-.372l.623.361c-.13.268-.303.475-.518.623-.21.144-.478.216-.803.216zm1.815-.061V10.88h.742v.572h.026a.78.78 0 01.2-.397.675.675 0 01.472-.176h.13v.693h-.185c-.217 0-.38.029-.487.086-.104.057-.155.162-.155.316v1.541h-.743zm3.104.061c-.2 0-.38-.032-.537-.096a1.178 1.178 0 01-.402-.276 1.237 1.237 0 01-.246-.437 1.906 1.906 0 01-.08-.572c0-.208.027-.395.08-.562.054-.171.133-.317.236-.437.107-.12.238-.213.392-.276.154-.067.33-.1.527-.1.218 0 .403.036.557.11.158.073.285.172.382.296.1.124.172.268.216.432.047.16.07.33.07.507v.22h-1.692v.04c0 .175.047.314.14.418.095.1.242.15.443.15.153 0 .28-.03.376-.09a1.56 1.56 0 00.271-.226l.372.462a1.167 1.167 0 01-.462.321 1.68 1.68 0 01-.643.116zm-.015-2.21c-.15 0-.27.05-.356.151a.58.58 0 00-.126.392v.04h.924v-.045a.628.628 0 00-.11-.387c-.07-.1-.181-.15-.332-.15zm3.351 1.707h-.025a.692.692 0 01-.095.201.683.683 0 01-.371.261.728.728 0 01-.242.04c-.334 0-.587-.117-.758-.35-.17-.239-.256-.582-.256-1.03 0-.449.086-.79.256-1.024.171-.235.424-.352.759-.352.17 0 .32.047.451.14.134.095.22.215.256.362h.025V9.8h.743v3.714h-.742v-.441zm-.487-.1a.566.566 0 00.347-.1.339.339 0 00.14-.287v-.778a.326.326 0 00-.14-.28.548.548 0 00-.347-.106.46.46 0 00-.35.15.559.559 0 00-.136.397v.457c0 .167.045.301.135.401.094.098.21.146.351.146zm2.297-2.375c-.15 0-.261-.033-.331-.1a.37.37 0 01-.1-.266v-.11c0-.108.033-.195.1-.262.07-.07.18-.105.33-.105.151 0 .26.035.327.105.07.067.106.154.106.261v.11a.36.36 0 01-.106.267c-.067.067-.175.1-.326.1zm-.372.282h.743v2.635h-.743V10.88zm2.361 2.635c-.258 0-.454-.065-.588-.195-.13-.131-.196-.322-.196-.573v-1.29h-.371v-.577h.186c.1 0 .169-.024.206-.07a.35.35 0 00.055-.212v-.431h.667v.713h.523v.577h-.523v1.48h.483v.578h-.442zm-13.605 4.672l1.26-3.497h.613l-1.26 3.497h-.613zm3.358-3.469h1.32c.23 0 .441.037.632.11.191.074.353.184.487.332.134.143.238.326.312.547.073.217.11.472.11.763 0 .291-.037.547-.11.768a1.53 1.53 0 01-.312.547 1.288 1.288 0 01-.487.326 1.73 1.73 0 01-.632.111h-1.32v-3.504zm1.32 2.826c.227 0 .406-.063.537-.19.13-.128.196-.332.196-.613v-.542c0-.281-.066-.486-.196-.613s-.31-.19-.537-.19h-.558v2.148h.558zm3.29.738c-.201 0-.38-.032-.538-.095a1.177 1.177 0 01-.401-.276 1.237 1.237 0 01-.246-.437 1.908 1.908 0 01-.08-.572c0-.208.026-.395.08-.563a1.22 1.22 0 01.236-.437c.107-.12.237-.212.391-.276.154-.067.33-.1.527-.1.218 0 .404.037.558.11.157.074.284.173.381.297.1.123.173.267.216.431.047.161.07.33.07.508v.22h-1.692v.04c0 .175.047.314.141.417.094.1.241.15.442.15.154 0 .28-.03.376-.09.097-.063.188-.138.271-.225l.372.462a1.17 1.17 0 01-.462.32 1.682 1.682 0 01-.643.116zm-.016-2.209c-.15 0-.27.05-.356.15a.58.58 0 00-.126.392v.04h.924v-.045c0-.16-.037-.29-.11-.386-.07-.1-.181-.15-.332-.15zm1.838-1.566h.743v1.521h.025a.62.62 0 01.251-.361.776.776 0 01.457-.141c.335 0 .587.117.758.351.17.235.256.576.256 1.025 0 .448-.085.791-.256 1.029-.17.234-.423.351-.758.351a.746.746 0 01-.246-.04.767.767 0 01-.21-.1.69.69 0 01-.251-.361h-.026v.441h-.743v-3.715zm1.23 3.173c.14 0 .256-.049.346-.146.094-.1.14-.234.14-.402v-.456c0-.168-.046-.3-.14-.397a.445.445 0 00-.346-.15.569.569 0 00-.352.105.33.33 0 00-.135.281v.778c0 .12.045.216.136.286.093.067.21.1.35.1zm2.183-2.375c-.151 0-.261-.033-.332-.1a.37.37 0 01-.1-.266v-.11c0-.108.033-.195.1-.262.07-.07.181-.105.332-.105.15 0 .259.035.326.105.07.067.105.154.105.261v.11a.36.36 0 01-.105.267c-.067.067-.176.1-.326.1zm-.372.281h.743v2.636h-.743v-2.636zm2.36 2.636c-.257 0-.453-.065-.587-.196-.13-.13-.196-.321-.196-.572v-1.29h-.371v-.578h.185c.1 0 .17-.023.206-.07a.351.351 0 00.056-.21v-.433h.667v.713h.522v.578h-.522v1.48h.482v.578h-.442z" fill="#333" /><path d="M18.883 7.14H8.695c-.648 0-1.175.528-1.175 1.176v6.661c0 .649.527 1.176 1.175 1.176h10.188c.648 0 1.175-.527 1.175-1.176v-6.66c0-.65-.527-1.176-1.175-1.176zm1.175 3.77H7.52V9.45h12.538v1.461z" fill="#FF444F" /><path d="M15.75 11.844H5.562c-.648 0-1.175.527-1.175 1.175v6.661c0 .649.527 1.176 1.175 1.176H15.75c.648 0 1.175-.527 1.175-1.176v-6.66c0-.648-.527-1.175-1.175-1.175z" fill="#122D96" /><path fill-rule="evenodd" clip-rule="evenodd" d="M14.835 13.357a.709.709 0 110 1.418h-1.644a.71.71 0 110-1.418h1.644zm0-.392h-1.644a1.102 1.102 0 000 2.202h1.644a1.102 1.102 0 000-2.202zm-9.237 5.658H7.52v.588H5.598v-.588zm2.73 0h1.923v.588H8.329v-.588zm4.652 0h-1.922v.588h1.922v-.588zm.809 0h1.922v.588h-1.922v-.588zm-8.191-4.43v.178c0 .21.17.38.38.38h.348v-.558h-.728zm0-.433c0-.21.17-.38.38-.38h.35v.558h-.73v-.178zm.983.992h.35a.38.38 0 00.381-.38v-.612a.38.38 0 00-.38-.38h-.35v1.372z" fill="#fff" /></symbol><symbol fill="none" viewBox="0 0 43 28" id="ic-wallet-crypto-light"><path d="M24.915 14.39c-.247 0-.47-.039-.669-.116a1.366 1.366 0 01-.506-.35 1.642 1.642 0 01-.324-.58 2.617 2.617 0 01-.115-.815c0-.306.038-.578.115-.815.076-.24.184-.44.324-.6a1.34 1.34 0 01.506-.371c.199-.084.422-.126.67-.126.337 0 .616.07.835.21.22.135.395.35.528.647l-.685.355a.786.786 0 00-.23-.365c-.1-.095-.25-.142-.449-.142a.735.735 0 00-.564.23c-.14.15-.21.37-.21.659v.585c0 .289.07.51.21.663.143.15.33.225.564.225.195 0 .35-.052.465-.157a.978.978 0 00.261-.386l.648.376a1.632 1.632 0 01-.538.648c-.22.15-.498.224-.836.224zm1.888-.063v-2.743h.773v.595h.026a.813.813 0 01.21-.412.702.702 0 01.491-.183h.135v.72h-.193c-.226 0-.395.03-.507.09-.108.059-.162.168-.162.329v1.604h-.773zm3.825-2.743h.721l-1.055 3.166c-.07.212-.17.369-.298.47-.125.101-.306.151-.543.151h-.481v-.6h.517l.094-.303-.961-2.884h.768l.402 1.28.199.794h.031l.204-.794.402-1.28zm1.114 0h.773v.46h.026a.645.645 0 01.262-.377.809.809 0 01.475-.146c.348 0 .611.122.789.366.177.243.266.599.266 1.066 0 .466-.089.823-.266 1.07-.178.244-.44.366-.79.366a.775.775 0 01-.255-.041.795.795 0 01-.22-.105.717.717 0 01-.261-.376h-.026v1.504h-.773v-3.787zm1.28 2.178a.47.47 0 00.36-.151.588.588 0 00.147-.418v-.476a.57.57 0 00-.147-.412.463.463 0 00-.36-.157.592.592 0 00-.366.11.343.343 0 00-.14.292v.81c0 .125.046.225.14.298.098.07.22.104.366.104zm2.829.565c-.268 0-.472-.068-.611-.204-.136-.136-.204-.334-.204-.596v-1.342h-.386v-.601h.193c.104 0 .176-.025.214-.073a.366.366 0 00.057-.22v-.45h.695v.743h.544v.6h-.544v1.542h.502v.6h-.46zm2.131.063c-.202 0-.383-.034-.543-.1a1.11 1.11 0 01-.402-.287 1.335 1.335 0 01-.251-.455 1.876 1.876 0 01-.089-.595c0-.22.03-.418.089-.596.06-.178.143-.327.25-.45.112-.125.246-.22.403-.287.16-.066.341-.099.543-.099s.382.033.538.1c.16.066.295.161.403.287.111.122.196.271.256.449.059.178.088.376.088.596 0 .219-.03.418-.088.595a1.29 1.29 0 01-.256.455 1.053 1.053 0 01-.403.287c-.156.066-.336.1-.538.1zm0-.612a.45.45 0 00.355-.141c.084-.094.126-.228.126-.402v-.56c0-.174-.042-.308-.126-.402a.45.45 0 00-.355-.14.45.45 0 00-.355.14c-.084.094-.125.229-.125.403v.559c0 .174.041.308.125.402a.45.45 0 00.355.141zm-13.698 4.18a.891.891 0 01-.342-.063.707.707 0 01-.252-.18.791.791 0 01-.153-.283 1.241 1.241 0 01-.053-.372c0-.137.018-.26.053-.37a.793.793 0 01.153-.284.659.659 0 01.252-.18.893.893 0 01.342-.061c.175 0 .32.04.435.117a.64.64 0 01.251.33l-.392.17a.33.33 0 00-.094-.166.277.277 0 00-.2-.07.264.264 0 00-.222.099.405.405 0 00-.075.258v.32c0 .109.025.195.075.258.05.063.124.095.222.095a.293.293 0 00.206-.07.416.416 0 00.114-.185l.376.163a.665.665 0 01-.265.36.776.776 0 01-.43.114zm2.007-.327h-.016a.55.55 0 01-.157.229.449.449 0 01-.14.071.58.58 0 01-.183.027c-.176 0-.31-.058-.402-.173-.089-.118-.134-.286-.134-.503v-1.078h.484v1.035a.44.44 0 00.055.242c.037.056.1.085.19.085a.391.391 0 00.209-.062.262.262 0 00.068-.079.214.214 0 00.026-.107v-1.114h.483v1.714h-.483v-.287zm.933.287v-1.714h.483v.372h.017a.507.507 0 01.13-.258.44.44 0 01.307-.114h.085v.45h-.12a.7.7 0 00-.317.056c-.068.037-.102.106-.102.206v1.002h-.483zm1.32 0v-1.714h.484v.372h.016a.506.506 0 01.13-.258.44.44 0 01.307-.114h.085v.45h-.12a.699.699 0 00-.317.056c-.068.037-.101.106-.101.206v1.002h-.484zm2.02.04a.925.925 0 01-.35-.063.765.765 0 01-.261-.18.802.802 0 01-.16-.283 1.241 1.241 0 01-.052-.372c0-.135.017-.257.052-.366a.685.685 0 01.408-.464.853.853 0 01.343-.065c.142 0 .262.024.363.072a.669.669 0 01.248.192c.065.08.112.175.14.281.03.105.046.215.046.33v.144h-1.1v.026c0 .113.03.203.09.27.062.066.157.099.288.099.1 0 .182-.02.245-.059a1.02 1.02 0 00.176-.147l.242.3a.762.762 0 01-.3.21c-.122.05-.262.075-.418.075zm-.01-1.437a.29.29 0 00-.232.098.377.377 0 00-.082.255v.026h.601v-.03a.405.405 0 00-.072-.251c-.045-.066-.117-.098-.215-.098zm1.128 1.397v-1.714h.483v.29h.02a.526.526 0 01.16-.231.471.471 0 01.317-.098c.176 0 .309.059.398.176.091.118.137.285.137.503v1.074h-.483v-1.035a.45.45 0 00-.052-.245c-.035-.054-.097-.081-.187-.081a.402.402 0 00-.215.062.25.25 0 00-.069.081.214.214 0 00-.026.108v1.11h-.483zm2.638.04a.89.89 0 01-.343-.063.706.706 0 01-.252-.18.791.791 0 01-.153-.283 1.241 1.241 0 01-.053-.372c0-.137.018-.26.053-.37a.793.793 0 01.153-.284.658.658 0 01.252-.18.893.893 0 01.343-.061c.174 0 .318.04.434.117a.64.64 0 01.251.33l-.392.17a.328.328 0 00-.094-.166.277.277 0 00-.2-.07.264.264 0 00-.222.099.404.404 0 00-.075.258v.32c0 .109.025.195.075.258.05.063.124.095.222.095a.293.293 0 00.206-.07.416.416 0 00.114-.185l.376.163a.665.665 0 01-.264.36.776.776 0 01-.431.114zm1.236-1.937c-.098 0-.17-.022-.216-.065a.241.241 0 01-.065-.173v-.072a.23.23 0 01.065-.17c.046-.046.118-.068.216-.068s.168.022.212.068c.046.044.069.1.069.17v.072a.23.23 0 01-.07.173c-.043.043-.113.065-.211.065zm-.242.183h.483v1.714h-.483v-1.714zm1.65 1.754a.925.925 0 01-.35-.063.765.765 0 01-.261-.18.802.802 0 01-.16-.283 1.238 1.238 0 01-.052-.372c0-.135.017-.257.052-.366a.687.687 0 01.408-.464.854.854 0 01.343-.065c.141 0 .262.024.362.072a.668.668 0 01.248.192c.066.08.113.175.14.281.031.105.047.215.047.33v.144h-1.1v.026c0 .113.03.203.09.27.062.066.157.099.288.099.1 0 .182-.02.245-.059a1.02 1.02 0 00.176-.147l.242.3a.76.76 0 01-.3.21c-.122.05-.262.075-.418.075zm-.01-1.437a.291.291 0 00-.232.098.377.377 0 00-.082.255v.026h.601v-.03a.405.405 0 00-.072-.251c-.045-.066-.117-.098-.215-.098zm1.709 1.437a.995.995 0 01-.418-.079.988.988 0 01-.303-.228l.284-.288a.71.71 0 00.202.16.53.53 0 00.252.059c.095 0 .162-.014.199-.042a.149.149 0 00.055-.121c0-.08-.057-.129-.173-.144l-.186-.023c-.385-.048-.578-.224-.578-.529a.513.513 0 01.18-.402.61.61 0 01.209-.114.856.856 0 01.277-.042c.09 0 .168.006.235.02a.699.699 0 01.33.137c.046.032.09.07.134.11l-.278.285a.604.604 0 00-.395-.177c-.082 0-.141.014-.176.04a.124.124 0 00-.052.104c0 .046.012.082.036.108.026.024.074.041.143.052l.193.026c.377.05.565.222.565.516a.505.505 0 01-.203.412.705.705 0 01-.231.117.992.992 0 01-.3.043z" fill="#333" /><path d="M8.43 10.975a4.098 4.098 0 013.966-3.097h.311a4.098 4.098 0 013.967 3.097l.084-.002c.34 0 .673.032.998.09a5.311 5.311 0 00-10.408-.002c.323-.058.656-.09.997-.09.028 0 .056.002.084.004z" fill="#BDCCD4" /><path d="M12.555 12.78a5.377 5.377 0 013.304-1.725 3.29 3.29 0 00-3.157-2.383h-.295a3.29 3.29 0 00-3.157 2.383 5.377 5.377 0 013.305 1.726z" fill="#BDCCD4" /><path d="M12.553 13.749a4.624 4.624 0 00-.379-.497 4.773 4.773 0 00-3.611-1.647 4.79 4.79 0 000 9.579 4.77 4.77 0 003.989-2.141 4.759 4.759 0 00.798-2.646c0-.978-.292-1.89-.796-2.648zm-4.072 3.935c.373 0 .728-.162.974-.445l.696.604c-.25.288-.567.501-.916.629v.736h-.549v-.612a2.11 2.11 0 01-.431 0v.612h-.549v-.746a2.211 2.211 0 01-1.432-2.067c0-.946.596-1.752 1.433-2.068v-.744h.548v.613a2.167 2.167 0 01.431 0v-.613h.549v.736c.35.128.667.34.916.629l-.696.604a1.287 1.287 0 10-.974 2.132z" fill="#93A6AD" /><path d="M16.543 11.605a4.77 4.77 0 00-3.61 1.645 5.36 5.36 0 011.016 3.145 5.36 5.36 0 01-1.015 3.144 4.77 4.77 0 003.61 1.645 4.79 4.79 0 000-9.579zm.196 7.422a.239.239 0 01-.393 0l-1.557-2.261 1.752 1.033 1.754-1.033-1.556 2.26zm-.198-1.84l-1.752-1.038 1.555-2.369a.239.239 0 01.399 0l1.554 2.37-1.756 1.037z" fill="#A3B6BF" /></symbol><symbol fill="none" viewBox="0 0 64 40" id="ic-wallet-deriv"><g clip-path="url(#ic-wallet-deriv_clip0)" fill="#fff"><path d="M6.595 15.5l-.003.01 3.482 4.526-5.572 4.527-.002.01h5.629a3.527 3.527 0 003.437-2.734l.466-2.018a3.527 3.527 0 00-3.437-4.321h-4zm11.911 0h3.538c2.852 0 4.477 1.957 4.027 4.51l-.005.026c-.45 2.553-2.77 4.536-5.621 4.536h-3.539l1.6-9.072zm2.256 7.271a3.199 3.199 0 003.213-2.709l.004-.026c.284-1.607-.62-2.735-2.252-2.735h-1.543l-.964 5.47h1.542zm7.936-7.271h6.908l-.313 1.776h-4.925l-.325 1.84h3.137l-.314 1.776H29.73l-.336 1.905h4.925l-.313 1.776h-6.908l1.6-9.073zm13.346 5.833c1.23-.428 2.182-1.348 2.44-2.813l.005-.026c.151-.855.004-1.568-.412-2.074-.491-.596-1.328-.92-2.482-.92h-4.148l-1.6 9.073h1.997l1.282-7.272h1.983c.972 0 1.49.44 1.34 1.296l-.005.026c-.135.765-.784 1.284-1.756 1.284h-1.504l2.172 4.666h2.333l-1.645-3.24zm4.814-5.833h1.996l-1.6 9.073h-1.996l1.6-9.073zm3.607 0h2.188l1.236 6.345 3.473-6.345H59.5l-5.242 9.073h-1.75L50.465 15.5z" /></g><defs></defs></symbol><clipPath id="ic-wallet-deriv_clip0"><path fill="#fff" transform="translate(4.5 15.5)" d="M0 0h55v9.075H0z" /></clipPath><symbol fill="none" viewBox="0 0 24 24" id="ic-wallet-deriv-apps"><g clip-path="url(#ic-wallet-deriv-apps_clip0)" fill-rule="evenodd" clip-rule="evenodd"><path d="M4.5 0h15A4.5 4.5 0 0124 4.5v15a4.5 4.5 0 01-4.5 4.5h-15A4.5 4.5 0 010 19.5v-15A4.5 4.5 0 014.5 0z" fill="#F2F2F2" /><path d="M19.584 4.415a4.837 4.837 0 00-6.837 0 4.842 4.842 0 000 6.84 4.838 4.838 0 006.837 0 4.838 4.838 0 000-6.84z" fill="#2A3150" /><path d="M14.822 9.128c.503-.034.32.446.32.446l.096.178c-.36-.197-.416-.624-.416-.624zm4.674-3.483l-.019-.028a3.945 3.945 0 00-5.392-1.113c.229-.05.405-.07 1.184.113.056-.035.471-.075.746-.005.6.154.665.197.862.274.57.221.657.39 1.684.73.326.108.503.068.497.08-.021.06-.198.1-.256.111-.054.011-.147.03-.302.027-.403-.006-.69-.096-1.57-.327 0 0 .221.096.425.164.16.053.198.067.448.163.54.207.652.179.676.2-.014.057-.215.08-.469.088-.184.005-.111.007-.342-.018-.406-.045-.548-.129-.756-.163l.017.02.024.028c.143.155.277.304.257.538-.002.005-.086.33.402.85a.165.165 0 01.023.02c.042.042.076.087.101.111.05.052.072.095.07.144 0 .089-.076.196-.253.356-.107.099-.616.332-.904.256-.085-.022-.196-.07-.335-.13a6.34 6.34 0 00-.602-.233l-.139-.045c-.334-.108-.453-.097-.646-.097-.215 0-.342.198-.342.198s-.225.136-.277.17c-.042.028-.24.23-.254.322-.002.013-.001.022.003.027a.81.81 0 00.077.085c.043.046.095.099.128.155.057.096.075.156.24.353l.002.006c.002.005.024.429.188.642.148.194.366.518.366.518s.075.12.032.164c-.061.066-.124.255.06.44l.042.037c.168.133.33.097.449.027.03-.017.16.053.201.08.162.109.45.11 1.029.226.01 0 .865.45 1.974-.454.051-.046.1-.094.15-.143h.001a3.92 3.92 0 001.155-2.79c0-.786-.228-1.537-.655-2.177z" fill="#fff" /><path d="M16.921 6.711s-.124-.41-.51-.549l.122.16s-.103.501.388.39z" fill="#fff" /><path d="M3 16.167a4.834 4.834 0 119.667 0 4.834 4.834 0 01-9.667 0z" fill="#2A3151" /><path d="M8.706 15.586l-1.066-.482.177.888.572.263a.837.837 0 01-.563 1.573.74.74 0 01-.125-.043l-.545-.25-.837.41 1.09.496a1.569 1.569 0 001.297-2.855z" fill="#fff" /><path d="M6.985 16.762l1.066.483-.182-.895-.571-.256a.838.838 0 01.563-1.574.82.82 0 01.126.043l.55.25.837-.412-1.09-.495a1.57 1.57 0 00-1.3 2.856z" fill="#fff" /><path d="M11.333 16.167a4.834 4.834 0 119.667 0 4.834 4.834 0 01-9.667 0z" fill="#FB654B" /><path d="M17.226 13.775h-.854v2.187h2.01V14.93a1.158 1.158 0 00-1.156-1.155zm-.854 4.783h.854a1.158 1.158 0 001.155-1.156v-1.03h-2.01v2.186zm-2.42-3.628v2.474a1.158 1.158 0 001.155 1.155h.854v-3.367h-.16a.674.674 0 01-1.316-.16.673.673 0 011.314-.25h.162v-1.007h-.854a1.158 1.158 0 00-1.155 1.155z" fill="#fff" /><path d="M3 7.833a4.834 4.834 0 119.667 0 4.834 4.834 0 01-9.667 0z" fill="#FB4654" /><path d="M5.884 5.441l-.256.8 1.277 1.57-1.28 1.558.206.856 1.983-2.411-1.93-2.373z" fill="#fff" /><path d="M7.7 5.441H6.273l.596.732h.827a1.674 1.674 0 010 3.349H6.8l-.578.703h1.474a2.37 2.37 0 002.344-2.392 2.37 2.37 0 00-2.342-2.392z" fill="#fff" /></g><defs></defs></symbol><clipPath id="ic-wallet-deriv-apps_clip0"><path fill="#fff" d="M0 0h24v24H0z" /></clipPath><symbol fill="none" viewBox="0 0 42 27" id="ic-wallet-dp2p-light"><path d="M5.858 23.02l-1.186-1.187 1.977-1.977 1.186 1.186-1.977 1.977z" fill="url(#ic-wallet-dp2p-light_paint0_linear)" /><path d="M15.374 11.92l-1.473-1.474h-.003c-.333-.316-.874-.324-1.195.008a.84.84 0 00.01 1.177l.003-.002v.004l1.473 1.473a4.142 4.142 0 01.05 5.801c-1.61 1.664-4.342 1.61-5.98-.027a.45.45 0 00-.636 0l-.867.868-.108.107 1.187 1.186.184-.184a5.824 5.824 0 007.357-.714 5.823 5.823 0 00-.002-8.223z" fill="#FF444F" /><path d="M19.407 4.734l1.186 1.187-1.977 1.977-1.186-1.186 1.977-1.978z" fill="url(#ic-wallet-dp2p-light_paint1_linear)" /><path d="M9.888 15.834l1.474 1.474h.002c.333.316.875.323 1.195-.009a.84.84 0 00-.01-1.176l-.002.002v-.004l-1.474-1.474a4.142 4.142 0 01-.049-5.8c1.61-1.664 4.342-1.61 5.979.027a.45.45 0 00.636 0l.868-.868.107-.107-1.186-1.186-.184.184a5.824 5.824 0 00-7.357.713 5.823 5.823 0 000 8.224z" fill="#333" /><path d="M21.652 11.671h1.652c.29 0 .553.047.792.142.239.094.442.236.61.425.167.184.297.418.389.701.092.28.138.606.138.98 0 .372-.046.7-.138.984a1.975 1.975 0 01-.39.702 1.61 1.61 0 01-.61.418 2.132 2.132 0 01-.79.142h-1.653v-4.494zm1.652 3.625c.285 0 .51-.082.673-.245.163-.163.244-.425.244-.785v-.696c0-.36-.081-.622-.244-.785-.164-.163-.388-.245-.673-.245h-.697v2.756h.697zm2.728.869v-4.494h2.073c.206 0 .39.037.553.11.163.068.302.165.415.29.117.124.207.276.27.456.063.176.094.37.094.58 0 .214-.031.41-.094.586a1.269 1.269 0 01-.685.747 1.413 1.413 0 01-.553.103h-1.118v1.622h-.955zm.955-2.472h1.005a.474.474 0 00.333-.11c.084-.077.126-.189.126-.335v-.283c0-.146-.042-.255-.126-.328a.458.458 0 00-.333-.116h-1.005v1.172zm6.145 2.472H30.03v-.882l1.35-1.185c.122-.107.225-.204.308-.29.084-.09.151-.175.201-.257a.883.883 0 00.113-.251.89.89 0 00.038-.264v-.09a.482.482 0 00-.182-.386.674.674 0 00-.396-.129.692.692 0 00-.276.051.66.66 0 00-.201.142.763.763 0 00-.138.2 1.067 1.067 0 00-.088.238l-.823-.322c.05-.155.12-.3.207-.438.088-.142.197-.264.327-.367.134-.107.29-.191.47-.251s.384-.09.61-.09c.239 0 .45.034.635.103.184.068.339.163.464.283.13.12.229.264.296.431.067.164.1.342.1.535s-.031.369-.094.528a1.86 1.86 0 01-.258.45 2.685 2.685 0 01-.37.393 23.36 23.36 0 01-.446.38l-.817.657h2.073v.811zm.789 0v-4.494h2.073c.205 0 .39.037.553.11.163.068.301.165.415.29.117.124.207.276.27.456.062.176.094.37.094.58 0 .214-.032.41-.094.586a1.27 1.27 0 01-.685.747 1.413 1.413 0 01-.553.103h-1.118v1.622h-.955zm.955-2.472h1.005a.474.474 0 00.333-.11c.084-.077.126-.189.126-.335v-.283c0-.146-.042-.255-.126-.328a.458.458 0 00-.333-.116h-1.005v1.172z" fill="#000" /><defs></defs></symbol><linearGradient id="ic-wallet-dp2p-light_paint0_linear" x1="7.244" y1="20.448" x2="5.266" y2="22.425" gradientUnits="userSpaceOnUse"><stop stop-color="#FF444F" /><stop offset="1" stop-color="#FF444F" stop-opacity="0" /></linearGradient><linearGradient id="ic-wallet-dp2p-light_paint1_linear" x1="18.025" y1="7.307" x2="20.002" y2="5.329" gradientUnits="userSpaceOnUse"><stop stop-color="#333" /><stop offset="1" stop-color="#333" stop-opacity="0" /></linearGradient><symbol fill="none" viewBox="0 0 14 14" id="ic-wallet-explore"><path d="M3 10a1 1 0 011 1v2a1 1 0 01-1 1H1a1 1 0 01-1-1v-2a1 1 0 011-1h2zm5 0a1 1 0 011 1v2a1 1 0 01-1 1H6a1 1 0 01-1-1v-2a1 1 0 011-1h2zm5 0a1 1 0 011 1v2a1 1 0 01-1 1h-2a1 1 0 01-1-1v-2a1 1 0 011-1h2zM3 11H1v2h2v-2zm5 0H6v2h2v-2zm5 0h-2v2h2v-2zM3 5a1 1 0 011 1v2a1 1 0 01-1 1H1a1 1 0 01-1-1V6a1 1 0 011-1h2zm5 0a1 1 0 011 1v2a1 1 0 01-1 1H6a1 1 0 01-1-1V6a1 1 0 011-1h2zm5 0a1 1 0 011 1v2a1 1 0 01-1 1h-2a1 1 0 01-1-1V6a1 1 0 011-1h2zM3 6H1v2h2V6zm5 0H6v2h2V6zm5 0h-2v2h2V6zM3 0a1 1 0 011 1v2a1 1 0 01-1 1H1a1 1 0 01-1-1V1a1 1 0 011-1h2zm5 0a1 1 0 011 1v2a1 1 0 01-1 1H6a1 1 0 01-1-1V1a1 1 0 011-1h2zm5 0a1 1 0 011 1v2a1 1 0 01-1 1h-2a1 1 0 01-1-1V1a1 1 0 011-1h2zM3 1H1v2h2V1zm5 0H6v2h2V1zm5 0h-2v2h2V1z" fill="var(--fill-color1)" /></symbol><symbol fill="none" viewBox="0 0 40 25" id="ic-wallet-fasapay-dark"><path d="M34.89 10.313l.938 2.675.903-2.675h1.707l-.947 2.309c-.073.177-.163.401-.258.636l-.057.142c-.248.617-.501 1.253-.501 1.253s-.347 1.144-.81 1.503c-.33.217-.72.326-1.115.313-.25.01-1.072.015-2.14.016h-1.895l-.31-.001-.78-.002c-1.817-.004-3.573-.011-4.248-.013H25.156l.238-1.103h8.994a.75.75 0 00.506-.191.472.472 0 00.156-.416 1.067 1.067 0 00-.11-.456c-.19-.425-1.703-3.99-1.703-3.99h1.654zm-8.227-.176a1.653 1.653 0 011.378.675 2.69 2.69 0 01.518 1.688 2.61 2.61 0 01-.54 1.684c-.32.426-.824.675-1.356.67a1.36 1.36 0 01-1.25-.726l-.472 2.322h-1.938l1.25-6.234h1.153v.656a1.36 1.36 0 011.257-.735zm4.515.06c1.467 0 2.21.45 2.231 1.35v2.434a.806.806 0 00.313.625v.138h-1.535a.803.803 0 01-.162-.522 2.522 2.522 0 01-1.644.616c-.43.02-.853-.108-1.2-.363a1.153 1.153 0 01-.453-.938c0-.993.938-1.284 1.766-1.403.253-.034.506-.065.762-.093.238-.006.47-.083.663-.222a.313.313 0 00.11-.263c-.029-.587-1.01-.512-1.357-.312a.678.678 0 00-.263.472h-1.562c.087-1.013.864-1.52 2.331-1.52zm.85 2.45c-.175.057-.355.099-.537.125l-.441.066c-.313.05-.728.15-.728.54s.344.481.647.485c.593 0 1.06-.32 1.06-.938v-.278zm-5.633-1.198a.625.625 0 00-.532.298 1.49 1.49 0 000 1.503c.116.18.317.287.53.284a.625.625 0 00.532-.287c.148-.22.22-.482.206-.747.012-.266-.059-.53-.203-.753a.625.625 0 00-.533-.298z" fill="#4873AC" /><path d="M13.081 9.966a1.985 1.985 0 011.532.559c.443.481.193 1.072-.016 1.547l-.088.21-.715 1.827a.495.495 0 00-.044.141c-.002.102.043.2.122.266.037.04.047.098.028.15l-.06.137a.172.172 0 01-.159.1H12.2a.166.166 0 01-.156-.1.64.64 0 01-.047-.172c-.461.26-.978.403-1.506.419a1.644 1.644 0 01-1.088-.363.978.978 0 01-.34-1.128c.19-.417.51-.763.912-.984.4-.249.843-.421 1.306-.51.224-.043.45-.07.678-.08h.182c.53-.035.85-.157.984-.348a.144.144 0 000-.159.35.35 0 00-.247-.165 1.357 1.357 0 00-.837.103.837.837 0 00-.313.287.181.181 0 01-.187.069l-1.16-.247a.172.172 0 01-.112-.081.134.134 0 010-.138c.203-.354.5-.646.86-.843a4.338 4.338 0 011.874-.497h.078zm3.535.215c.906-.303 2.156-.347 2.78.278.201.202.314.475.313.76v.031l-1.609.387v-.059a.312.312 0 00-.113-.272.938.938 0 00-.743-.097c-.172.041-.456.104-.435.275.003.088.147.144.232.178.22.077.447.134.678.17.603.112 1.284.237 1.453.9.197.771-.506 1.512-1.303 1.843a4.124 4.124 0 01-1.585.313c-.302 0-.603-.03-.9-.091a1.45 1.45 0 01-1.134-.84.862.862 0 01-.05-.445c.016-.125.022-.165 1.469-.368a.178.178 0 01.131.037.137.137 0 01.056.119.278.278 0 00.078.234c.196.123.427.176.657.15.218.007.436-.03.64-.109.119-.05.185-.119.188-.194.003-.075-.069-.153-.19-.206a1.966 1.966 0 00-.46-.125l-.19-.04c-.126-.029-.257-.057-.357-.088a2.423 2.423 0 01-.519-.222 1.281 1.281 0 01-.64-.787.978.978 0 01.153-.779 2.76 2.76 0 011.4-.953zm6.379-.082l.133.004a4.33 4.33 0 011 .097c.213.034.413.122.581.256.1.085.18.192.232.313a.626.626 0 01.025.319 1.658 1.658 0 01-.12.371l-1.04 2.5s-.056.138-.056.175c0 .067-.058.297-.106.478l-.025.093-.04.145h-3.126c-.384.02-.764-.09-1.078-.313a.787.787 0 01-.313-.787c.019-.096.05-.19.091-.278a1.8 1.8 0 01.24-.384c.123-.156.265-.296.423-.416a2.91 2.91 0 01.668-.36c.302-.117.617-.196.938-.237l.625-.072.178-.022.2-.022.2-.028c.066-.009.132-.022.197-.04.044-.016.103-.032.175-.05a.592.592 0 00.172-.072c.046-.03.09-.064.131-.1a.444.444 0 00.153-.282c.035-.237-.2-.356-.706-.356a1.81 1.81 0 00-.788.14c-.204.109-.37.277-.475.482h-1.362a2.284 2.284 0 011.062-1.181c.61-.273 1.276-.4 1.944-.369l-.133-.004zM12.022 8.513l-.797 1.14h-.028a3.848 3.848 0 00-.4-.015h-.081c-.153-.013-.341.103-.52.334l-.087.178h.625l-.747 1.306h-.575L7.85 14.603h-.034l-4.588-.228v-.088c.014-.002.861-.06 1.739-.1l.255-.012.169-.007c.335-.012.656-.021.915-.021l.875-1.638-5.597-.625v-.1h.014c.168-.004 1.82-.046 3.443-.078l.227-.004c.903-.017 1.775-.03 2.354-.03l.065-.125a142.73 142.73 0 00-1.52-.258l-.174-.03a159.32 159.32 0 00-1.809-.29v-.1c.013 0 .8-.045 1.635-.082l.26-.01c.49-.02.97-.036 1.296-.036a.56.56 0 00.237-.263.625.625 0 01.147-.203.803.803 0 01.41-.056h.268l-5.63-.688v-.1h.013c.258-.005 4.095-.1 5.764-.1a.495.495 0 01.097 0h.222c-.492-.066-1.094-.15-1.695-.235l-.2-.029-.1-.014-.198-.028c-1.182-.167-2.232-.319-2.25-.319v-.1h.013c.16-.002 1.651-.025 3.235-.046l.348-.004a300.6 300.6 0 013.072-.028h.803l.09-.015zm10.165 3.837a.847.847 0 00-.706.578.438.438 0 00.081.472l-.715 1.047h1.29V13.4a.9.9 0 00.394-.472c.107-.319-.031-.578-.343-.578zm-9.587.528l-.169.031-.281.041-.028.019a4.43 4.43 0 00-.766.156.768.768 0 00-.522.41c-.04.127.007.18.05.215.243.117.522.135.778.05.43-.147.772-.475.938-.897v-.025z" fill="#F6931C" /></symbol><symbol fill="none" viewBox="0 0 43 27" id="ic-wallet-fasapay-light"><path d="M37.292 11.59l.98 2.795.944-2.795h1.782l-.989 2.413-.27.665-.059.148c-.259.645-.523 1.31-.523 1.31s-.363 1.195-.846 1.57c-.346.226-.753.34-1.166.327-.26.01-1.12.016-2.235.017h-1.187l-.794-.001h-.324l-.815-.002-4.439-.014h-.23l.248-1.153h9.398a.784.784 0 00.529-.2.493.493 0 00.163-.433 1.114 1.114 0 00-.114-.477c-.2-.444-1.78-4.17-1.78-4.17h1.727zm-8.597-.183a1.727 1.727 0 011.44.706c.374.51.565 1.13.542 1.763a2.726 2.726 0 01-.565 1.76 1.75 1.75 0 01-1.417.698 1.42 1.42 0 01-1.306-.757l-.493 2.426H24.87l1.306-6.514h1.205v.685a1.42 1.42 0 011.313-.767zm4.718.062c1.533 0 2.31.47 2.332 1.41v2.545a.842.842 0 00.326.653v.143h-1.603a.84.84 0 01-.17-.545 2.635 2.635 0 01-1.718.643 1.96 1.96 0 01-1.253-.379 1.205 1.205 0 01-.474-.98c0-1.038.98-1.341 1.845-1.465.264-.036.529-.069.797-.098.249-.006.49-.087.692-.232a.327.327 0 00.114-.274c-.03-.614-1.054-.536-1.417-.327a.708.708 0 00-.274.493h-1.633c.092-1.058.904-1.587 2.436-1.587zm.888 2.56c-.183.06-.37.104-.561.13l-.46.07c-.327.052-.762.156-.762.564 0 .408.36.503.676.506.62 0 1.107-.333 1.107-.98v-.29zm-5.885-1.252a.653.653 0 00-.557.312 1.558 1.558 0 000 1.57c.122.188.331.3.555.298a.653.653 0 00.555-.3c.154-.23.23-.505.216-.781a1.346 1.346 0 00-.213-.787.653.653 0 00-.556-.312z" fill="#4873AC" /><path d="M14.505 11.23a2.074 2.074 0 011.6.584c.464.503.203 1.12-.016 1.616l-.091.219-.748 1.91a.522.522 0 00-.046.147.353.353 0 00.127.278c.039.042.05.103.03.156l-.062.144a.18.18 0 01-.167.105h-1.548a.173.173 0 01-.163-.105.67.67 0 01-.049-.18 3.42 3.42 0 01-1.574.438 1.718 1.718 0 01-1.136-.379 1.022 1.022 0 01-.356-1.179c.199-.436.533-.797.954-1.028.418-.26.88-.44 1.364-.532a4.81 4.81 0 01.709-.085h.19c.555-.036.888-.164 1.028-.363a.15.15 0 000-.166.366.366 0 00-.258-.173 1.416 1.416 0 00-.875.107.875.875 0 00-.327.3.19.19 0 01-.195.073l-1.212-.258a.18.18 0 01-.117-.085.14.14 0 010-.144c.212-.37.523-.676.897-.882a4.534 4.534 0 011.96-.519h.081zm3.693.225c.947-.317 2.253-.363 2.906.29.21.211.327.496.327.794v.032l-1.682.405v-.062a.326.326 0 00-.117-.284.98.98 0 00-.777-.101c-.18.042-.477.108-.454.287.003.092.153.15.241.186.23.08.468.14.709.177.63.117 1.342.248 1.518.94.206.807-.529 1.58-1.361 1.927a4.31 4.31 0 01-1.656.326c-.316 0-.63-.032-.94-.095-.52-.067-.97-.4-1.185-.878a.901.901 0 01-.053-.464c.017-.13.023-.173 1.535-.385a.187.187 0 01.137.04.14.14 0 01.059.123.29.29 0 00.081.245c.205.128.447.184.686.157a1.71 1.71 0 00.67-.114c.124-.053.192-.124.196-.203.003-.078-.072-.16-.2-.215a2.049 2.049 0 00-.48-.13l-.199-.043c-.13-.03-.268-.06-.372-.092a2.53 2.53 0 01-.542-.232 1.339 1.339 0 01-.67-.822 1.022 1.022 0 01.16-.813 2.883 2.883 0 011.463-.996zm6.666-.086l.14.004c.35-.007.7.027 1.044.101.222.036.431.128.608.268.104.089.187.2.241.326a.653.653 0 01.026.334 1.727 1.727 0 01-.124.388l-1.087 2.612s-.059.144-.059.183c0 .07-.06.31-.11.5l-.027.096-.043.152h-3.265a1.8 1.8 0 01-1.126-.327.823.823 0 01-.327-.822c.02-.1.051-.198.095-.291a1.88 1.88 0 01.251-.402 2.42 2.42 0 01.441-.434 3.04 3.04 0 01.699-.376 4.15 4.15 0 01.98-.248l.652-.075.186-.023.21-.022.209-.03c.069-.01.138-.024.205-.042.046-.017.108-.033.183-.053a.622.622 0 00.18-.075c.048-.031.094-.066.137-.104a.464.464 0 00.16-.294c.036-.248-.21-.372-.738-.372a1.895 1.895 0 00-.823.147 1.172 1.172 0 00-.496.503h-1.424c.21-.531.604-.97 1.11-1.235a4.463 4.463 0 012.031-.385l-.14-.004zM13.398 9.71l-.832 1.192h-.03a4.023 4.023 0 00-.418-.017h-.085c-.16-.013-.355.108-.542.35l-.091.186h.653l-.78 1.365h-.601l-1.633 3.288h-.036l-4.793-.238v-.092c.014-.002.9-.063 1.817-.105l.266-.012.176-.007c.35-.014.686-.023.957-.023l.914-1.71-5.848-.654v-.104h.014a584.98 584.98 0 013.598-.082l.237-.005c.943-.017 1.855-.03 2.46-.03l.068-.131c-.421-.075-1.007-.174-1.587-.27l-.183-.03c-.972-.16-1.874-.305-1.89-.305v-.104c.013 0 .836-.047 1.708-.085l.27-.012a37.1 37.1 0 011.356-.037.585.585 0 00.248-.274.652.652 0 01.153-.212.838.838 0 01.428-.06h.281l-5.884-.718v-.104h.014c.27-.006 4.28-.105 6.023-.105a.519.519 0 01.102 0h.232c-.514-.07-1.144-.157-1.772-.246l-.209-.03-.104-.014-.207-.03c-1.235-.175-2.332-.333-2.352-.333V9.81h.015c.166-.002 1.725-.027 3.38-.048l.364-.005c1.256-.015 2.513-.029 3.21-.029h.839l.094-.016zm10.622 4.01a.885.885 0 00-.738.604.457.457 0 00.085.493l-.748 1.094h1.35v-1.094a.94.94 0 00.41-.493c.112-.333-.032-.604-.359-.604zm-10.018.552l-.176.032-.294.043-.03.02a4.62 4.62 0 00-.8.162.803.803 0 00-.544.428c-.043.134.006.19.052.226.254.122.545.14.813.052.448-.154.806-.496.98-.937v-.026z" fill="#F6931C" /></symbol><symbol fill="none" viewBox="0 0 40 25" id="ic-wallet-jeton-dark"><path d="M10.776 8.125v8.75h-.317v-8.75h.317zm4.318 5.985a.472.472 0 00.484-.46V9.027h1.93v4.623c.032.839-.422 1.627-1.182 2.055a2.51 2.51 0 01-1.102.318l-.088.003h-.088a2.513 2.513 0 01-1.19-.321c-.76-.428-1.214-1.216-1.182-2.055h1.933c0 .254.217.46.485.46zm15.864-3.095c.31.125.592.308.828.537l.006.003c.241.234.43.51.555.815.263.66.263 1.389 0 2.049a2.484 2.484 0 01-1.389 1.36c-.288.111-.591.175-.896.19l-.102.004h-.102a2.926 2.926 0 01-.998-.193 2.562 2.562 0 01-.837-.54 2.517 2.517 0 01-.548-.821 2.643 2.643 0 01-.198-1.026c-.004-.35.063-.697.198-1.023.125-.303.311-.58.548-.815.238-.231.523-.415.837-.54a2.9 2.9 0 012.098 0zm-10.24-.208c.357-.005.712.056 1.044.182.303.116.575.296.795.526v-.003c.219.232.386.504.49.8.114.332.17.68.165 1.029v.243a.55.55 0 01-.04.182l-.055.1h-3.35c.044.2.15.383.305.524.099.09.214.16.341.208.132.05.272.075.414.075l.071.002.071-.002c.188-.012.369-.075.522-.182l.076-.064 1.42.376-.153.214c-.136.191-.304.36-.5.497-.2.147-.426.26-.666.338-.247.073-.5.112-.755.118l-.11.001a2.93 2.93 0 01-.962-.174 2.412 2.412 0 01-1.398-1.332 2.667 2.667 0 01-.216-1.095 2.638 2.638 0 01.204-1.043 2.444 2.444 0 011.346-1.323c.295-.128.616-.195.94-.197zM8.824 14.005c-.458.905-1.307 1.576-2.326 1.841a3.82 3.82 0 01-2.99-.456l5.316-1.385zm16.9-4.43v1.379h.977v1.323h-.977v1.908a.401.401 0 00.088.289.473.473 0 00.258.084h.046c.05.004.1.006.149.007l.074-.002.13-.017.241-.058v1.231l-.122.046c-.027 0-.079.026-.234.067a2.243 2.243 0 01-.313.044l-.105.005h-.106a1.669 1.669 0 01-1.169-.405c-.3-.3-.457-.702-.436-1.115v-2.084h-.578v-1.323h.579V9.576h1.498zm10.192 1.252l.091.002c.244.01.486.06.715.151.236.098.445.248.61.436.156.188.274.402.346.63l.019.003c.078.244.117.497.115.752v3.034H36.29v-2.852a.974.974 0 00-.183-.601.855.855 0 00-.535-.214h-.053l-.052.002a.851.851 0 00-.526.235.987.987 0 00-.207.641v2.786H33.21v-4.878h1.477v.269c.103-.084.216-.154.338-.208.282-.126.586-.188.89-.188zm-6.008 1.335c-.147 0-.293.025-.43.075a.954.954 0 00-.344.223c-.11.112-.195.244-.253.387-.068.174-.101.36-.097.546-.003.188.03.375.097.552.058.144.144.276.253.39.098.098.216.176.347.228.136.052.28.078.425.078l.072-.002c.12-.007.24-.032.353-.076a1.05 1.05 0 00.356-.23c.107-.113.19-.245.24-.388l.007.003c.065-.179.097-.366.094-.555a1.486 1.486 0 00-.094-.55 1.086 1.086 0 00-.247-.38c-.1-.099-.22-.176-.353-.226a1.235 1.235 0 00-.427-.075zM8.573 10.555c.403.576.615 1.254.61 1.945v.173l-6.7 1.743a3.326 3.326 0 01-.609-1.916v-.208l6.7-1.737zm12.147 1.526a1.024 1.024 0 00-.695.263 1.04 1.04 0 00-.195.289.884.884 0 00-.02.08l.005-.002h1.852a.769.769 0 00-.213-.379.894.894 0 00-.305-.182 1.174 1.174 0 00-.356-.069h-.073zM4.565 9.158a3.821 3.821 0 012.946.43l-5.25 1.366c.464-.882 1.302-1.535 2.304-1.796z" fill="#FF671F" /></symbol><symbol fill="none" viewBox="0 0 42 27" id="ic-wallet-jeton-light"><path d="M11.363 9.344v9.143h-.331V9.344h.33zm4.511 6.253c.28 0 .506-.215.506-.48v-4.831h2.018v4.83c.032.877-.442 1.7-1.236 2.148-.356.2-.752.311-1.15.332l-.093.003h-.092c-.43-.007-.86-.12-1.243-.335-.795-.447-1.269-1.27-1.236-2.147h2.02c0 .265.227.48.506.48zm16.577-3.234c.325.132.619.322.866.562l.006.003c.252.244.449.533.58.851.275.69.275 1.451 0 2.141a2.596 2.596 0 01-1.452 1.422 3.056 3.056 0 01-.936.199l-.107.003h-.106a3.059 3.059 0 01-1.043-.202 2.676 2.676 0 01-.875-.564 2.634 2.634 0 01-.573-.858 2.765 2.765 0 01-.206-1.072 2.727 2.727 0 01.206-1.069c.131-.316.326-.605.573-.851.25-.242.547-.434.875-.565a3.029 3.029 0 012.192 0zm-10.7-.217c.374-.006.744.06 1.091.19.317.122.601.31.83.55v-.003c.23.242.404.527.513.836.12.347.177.71.172 1.075v.253a.578.578 0 01-.041.19l-.058.106h-3.5c.045.21.156.4.319.547a1.182 1.182 0 00.789.296l.074.002.074-.002c.196-.013.385-.079.545-.19l.08-.067 1.483.393-.16.223c-.141.2-.317.376-.521.52-.21.153-.446.272-.697.353a3.062 3.062 0 01-.789.123l-.114.001a3.061 3.061 0 01-1.006-.182 2.52 2.52 0 01-1.46-1.392 2.786 2.786 0 01-.227-1.144 2.755 2.755 0 01.214-1.09 2.552 2.552 0 011.406-1.383c.309-.133.644-.203.983-.205zM9.323 15.488c-.479.945-1.365 1.647-2.43 1.924a3.99 3.99 0 01-3.125-.477l5.555-1.447zm17.659-4.628v1.44h1.021v1.383h-1.021v1.992a.42.42 0 00.092.302.494.494 0 00.27.089l.048-.001c.052.005.104.007.155.007h.078l.137-.02.25-.06v1.287l-.127.048c-.028 0-.082.027-.245.07a2.335 2.335 0 01-.326.046l-.11.005h-.11a1.744 1.744 0 01-1.223-.423 1.533 1.533 0 01-.454-1.165v-2.177h-.605V12.3h.604v-1.44h1.566zm10.65 1.307l.095.002c.255.01.508.063.747.158.247.103.465.259.637.456.163.196.286.419.363.658l.019.003c.081.255.122.52.12.785v3.17h-1.59v-2.98a1.018 1.018 0 00-.191-.628.893.893 0 00-.56-.223h-.055l-.055.002a.889.889 0 00-.549.245c-.15.194-.226.43-.216.67v2.912h-1.591V12.3h1.543v.28a1.6 1.6 0 01.353-.217c.294-.13.612-.196.93-.196zm-6.278 1.395c-.154 0-.306.026-.449.078a.995.995 0 00-.36.233 1.249 1.249 0 00-.264.405 1.476 1.476 0 00-.101.57c-.004.197.03.392.101.577.061.15.15.288.265.407.102.103.225.184.362.24.143.053.293.08.444.08l.075-.002c.126-.007.25-.034.369-.079a1.1 1.1 0 00.372-.242c.112-.117.198-.254.252-.404l.006.003a1.62 1.62 0 00.099-.58c.003-.195-.03-.39-.1-.574a1.135 1.135 0 00-.257-.398 1.056 1.056 0 00-.369-.236 1.29 1.29 0 00-.445-.078zM9.062 11.883c.421.602.643 1.31.637 2.032v.181l-7 1.821a3.475 3.475 0 01-.636-2.002v-.217l7-1.815zm12.692 1.594a1.069 1.069 0 00-.725.275c-.085.09-.154.191-.204.302a.854.854 0 00-.022.085l.006-.003h1.935a.803.803 0 00-.223-.396.934.934 0 00-.318-.19 1.225 1.225 0 00-.372-.072h-.077zM4.873 10.423a3.992 3.992 0 013.079.449L2.467 12.3c.484-.922 1.36-1.605 2.406-1.877z" fill="#FF671F" /></symbol><symbol fill="none" viewBox="0 0 16 14" id="ic-wallet-markets"><path d="M12.5 0h.023a.497.497 0 01.431.29l-.038-.068a.496.496 0 01.044.083l2.994 6.485a.617.617 0 01.036.109A.476.476 0 0116 7l-.003.055a.476.476 0 01-.004.03L16 7a.498.498 0 01-.071.258l-.003.004-4 6.5-.004.005a.496.496 0 01-.187.174l-.011.006-.026.012a.52.52 0 01-.045.017l.07-.029A.503.503 0 0111.5 14l.073-.005a.464.464 0 01-.049.005H3.5a.544.544 0 01-.15-.023.542.542 0 01-.08-.033.507.507 0 01-.132-.1l.062.056a.497.497 0 01-.154-.19l.036.064a.51.51 0 01-.017-.028l-.019-.037-3-6.5A.5.5 0 010 7v-.01a.5.5 0 01.006-.066L0 7a.502.502 0 01.089-.285l-.032.053a.5.5 0 01.02-.035l.012-.018 4.5-6.5a.505.505 0 01.187-.162l.019-.009a.499.499 0 01.039-.016l-.058.025A.501.501 0 015 0l-.083.007A.497.497 0 014.99 0H12.5zM6.827 7.5H1.28l2.322 5.031L4.6 11.2a.5.5 0 01.847.523L5.4 11.8 4.5 13h6.19L7.989 7.598 6.405 9.793a.5.5 0 01-.856-.508l.046-.078L6.827 7.5zm5.577-6.014L8.783 6.5H10.5a.5.5 0 01.09.992l-.09.008H9.059l2.486 4.971L14.604 7.5H12.5a.5.5 0 01-.09-.992l.09-.008h2.218l-2.314-5.014zM11.521 1H5.809l.638 1.276A.5.5 0 015.6 2.8l-.047-.076-.624-1.246L1.453 6.5H7.44l-.887-1.776A.5.5 0 017.4 4.2l.047.076.699 1.398L11.521 1z" fill="var(--fill-color1)" /></symbol><symbol viewBox="0 0 16 16" id="ic-wallet-my-apps"><path fill="var(--fill-color1)" fill-rule="evenodd" clip-rule="evenodd" d="M0 4h4V0H0v4zm6 12h4v-4H6v4zm-2 0H0v-4h4v4zm-4-6h4V6H0v4zm10 0H6V6h4v4zm2-10v4h4V0h-4zm-2 4H6V0h4v4zm2 6h4V6h-4v4zm4 6h-4v-4h4v4z" /></symbol><symbol fill="none" viewBox="0 0 50 9" id="ic-wallet-neteller"><path fill-rule="evenodd" clip-rule="evenodd" d="M49.081.648C48.446.224 47.48 0 46.217 0h-3.309l-1.233 6.576h-4.334l.275-1.475h2.636l.308-1.674h-2.63l.279-1.487H40.9l.36-1.928h-5.465l-1.17 6.23h-2L33.798.016H30.93L29.773 6.24H27.82L28.998.017h-2.856L24.91 6.58h-4.368l.275-1.479h2.623l.309-1.695H21.13l.28-1.491h2.742l.334-1.898H7.456l-.97 5.211L4.56.017H1.592L0 8.49h2.83l.983-5.34 1.856 5.34h10.143l1.233-6.58h1.597l-1.245 6.58H44.09l.776-4.153 1.27 4.153h2.835L47.675 5.1l.292-.063a2.548 2.548 0 001.522-.878 2.711 2.711 0 00.508-1.703 2.015 2.015 0 00-.916-1.81zM13.347 6.58H9.016l.28-1.479h2.715l.31-1.695h-2.69l.258-1.478h4.326l-.869 4.652zm33.4-2.864a2.212 2.212 0 01-1.27.292h-.564l.423-2.284h.424c.363-.022.725.054 1.046.225a.89.89 0 01.424.797c.02.384-.164.75-.482.965v.005h-.001z" fill="#fff" /></symbol><symbol fill="none" viewBox="0 0 40 25" id="ic-wallet-neteller-dark"><path fill-rule="evenodd" clip-rule="evenodd" d="M35.05 10.405c-.396-.265-1-.405-1.79-.405h-2.067l-.771 4.11h-2.709l.172-.922h1.647l.193-1.046h-1.644l.175-.93h1.682l.225-1.204h-3.416l-.732 3.893h-1.25l.734-3.89h-1.793l-.723 3.89h-1.22l.736-3.89h-1.785l-.77 4.101h-2.731l.172-.924h1.64l.192-1.06h-1.636l.175-.931h1.713l.21-1.187H9.034l-.606 3.258-1.205-3.258H5.37l-.995 5.297h1.769l.614-3.337 1.16 3.337h6.34l.77-4.113h.998l-.778 4.113h16.683l.485-2.596.795 2.596h1.771l-.81-2.119.183-.04c.371-.063.709-.258.95-.548.223-.309.335-.684.318-1.064a1.26 1.26 0 00-.572-1.131zm-22.333 3.707H10.01l.175-.924h1.697l.194-1.06h-1.682l.161-.923h2.704l-.543 2.907zm20.875-1.79c-.24.14-.518.203-.794.183h-.352l.264-1.427h.265c.227-.014.453.034.654.14a.557.557 0 01.265.498.686.686 0 01-.302.604v.002z" fill="#8DC640" /></symbol><symbol fill="none" viewBox="0 0 43 28" id="ic-wallet-neteller-light"><path fill-rule="evenodd" clip-rule="evenodd" d="M37.092 11.77c-.415-.276-1.046-.422-1.87-.422H33.06l-.805 4.294h-2.83l.179-.963h1.72l.203-1.093H29.81l.182-.971h1.757l.236-1.26h-3.57l-.764 4.069h-1.306l.767-4.066h-1.874l-.755 4.065h-1.276l.77-4.065h-1.865l-.806 4.287h-2.853l.18-.966h1.713l.202-1.107h-1.71l.183-.974h1.79l.218-1.24H9.91l-.634 3.404-1.259-3.404H6.08l-1.04 5.535h1.848l.642-3.487 1.212 3.487h6.625l.805-4.298h1.043l-.813 4.298h17.432l.506-2.712.83 2.712h1.851l-.846-2.214.19-.041c.39-.067.741-.27.994-.573a1.77 1.77 0 00.332-1.113c.028-.472-.2-.924-.598-1.181zm-23.337 3.875h-2.828l.183-.966h1.773l.202-1.107h-1.757l.169-.965h2.825l-.567 3.038zm21.813-1.87a1.451 1.451 0 01-.83.19h-.368l.276-1.491h.277c.237-.015.474.035.683.146.18.11.286.31.277.52a.717.717 0 01-.315.631v.003z" fill="#8DC640" /></symbol><symbol fill="none" viewBox="0 0 42 28" id="ic-wallet-payment-agent-light"><path d="M12.293 12.652H3.586a.87.87 0 00-.871.871v5.442c0 .481.39.871.87.871h4.137v-.555c0-.71.585-1.287 1.297-1.287h1.3c.71 0 1.286.577 1.286 1.287v.555h.688a.87.87 0 00.87-.87v-5.443a.87.87 0 00-.87-.87zm-2.336 4.816a1.261 1.261 0 01-1.513-1.513c.103-.462.475-.836.939-.939a1.261 1.261 0 011.513 1.513 1.254 1.254 0 01-.939.939zm-4.852-.717v.466h-.581v-.463c-.429-.081-.699-.344-.716-.73h.505c.024.203.228.331.522.331.27 0 .464-.13.464-.318 0-.158-.124-.25-.431-.317l-.325-.07c-.455-.096-.677-.331-.677-.712 0-.38.253-.655.658-.744v-.47h.581v.47c.394.087.655.357.668.716h-.49c-.023-.196-.208-.329-.459-.329-.252 0-.433.122-.433.311 0 .155.12.24.411.305l.3.063c.502.105.717.318.717.708 0 .42-.268.698-.714.783z" fill="#333" /><path d="M11.422 11.02H4.456a.861.861 0 00-.862.862v.237h8.69v-.237a.861.861 0 00-.862-.862z" fill="#5C5C5C" /><path d="M10.335 9.387h-4.79a.861.861 0 00-.861.862v.237h6.513v-.237a.861.861 0 00-.862-.862z" fill="#858585" /><path d="M17.81 14.283v-3.646h1.724c.17 0 .324.03.46.088a1.019 1.019 0 01.57.606c.051.143.077.3.077.47 0 .175-.026.333-.078.476a1.026 1.026 0 01-.57.606 1.2 1.2 0 01-.46.084h-.93v1.316h-.794zm.794-2.006h.836a.4.4 0 00.276-.089c.07-.062.105-.153.105-.271v-.23c0-.119-.035-.207-.105-.267a.387.387 0 00-.276-.094h-.836v.951zM23.147 14.283a.496.496 0 01-.35-.13.609.609 0 01-.173-.35h-.03a.644.644 0 01-.278.407.967.967 0 01-.527.136c-.276 0-.486-.073-.633-.22-.146-.146-.22-.339-.22-.58 0-.288.105-.502.314-.642.213-.143.5-.214.862-.214h.434v-.172a.449.449 0 00-.104-.314c-.07-.08-.187-.12-.35-.12a.607.607 0 00-.366.1.981.981 0 00-.225.224l-.46-.408c.112-.163.251-.29.418-.381.171-.094.4-.141.69-.141.39 0 .683.085.878.256.195.17.292.42.292.747v1.202h.256v.6h-.428zm-1.071-.475a.617.617 0 00.329-.084c.094-.055.141-.146.141-.271v-.324h-.376c-.303 0-.455.103-.455.308v.078c0 .101.032.176.094.225a.45.45 0 00.267.068zM25.725 11.54h.721l-1.055 3.167c-.07.212-.169.369-.298.47-.125.1-.306.151-.543.151h-.48v-.6h.517l.093-.303-.96-2.884h.767l.403 1.28.198.794h.031l.204-.794.402-1.28zM26.84 14.283v-2.742h.772v.464h.032a.82.82 0 01.25-.37c.119-.105.28-.157.486-.157.189 0 .349.047.481.14a.787.787 0 01.287.414h.016a.732.732 0 01.298-.392.936.936 0 01.245-.115.887.887 0 01.293-.047c.265 0 .467.094.606.282.143.188.214.456.214.805v1.718h-.773v-1.656c0-.348-.125-.522-.376-.522a.532.532 0 00-.314.1c-.094.065-.14.166-.14.302v1.776h-.774v-1.656c0-.348-.125-.522-.376-.522a.558.558 0 00-.314.1.432.432 0 00-.104.13.382.382 0 00-.037.172v1.776h-.773zM32.652 14.346a1.48 1.48 0 01-.56-.1 1.225 1.225 0 01-.417-.287 1.286 1.286 0 01-.256-.454 1.986 1.986 0 01-.084-.596c0-.216.028-.41.084-.585a1.27 1.27 0 01.245-.454c.112-.126.247-.221.408-.288.16-.07.343-.104.548-.104.227 0 .42.038.58.115.164.076.296.18.397.308.105.129.18.279.225.45.049.166.073.342.073.527v.23h-1.76v.042c0 .18.048.325.146.433.097.105.25.157.46.157.16 0 .29-.031.391-.094.101-.066.195-.145.282-.235l.387.48a1.217 1.217 0 01-.48.335c-.196.08-.418.12-.67.12zm-.016-2.299a.465.465 0 00-.37.157.603.603 0 00-.131.408v.041h.96v-.047a.65.65 0 00-.114-.402c-.073-.104-.188-.157-.345-.157zM34.441 14.283v-2.742h.773v.464h.032a.84.84 0 01.256-.37c.122-.105.29-.157.506-.157.283 0 .495.094.638.282.146.188.22.456.22.805v1.718h-.774v-1.656c0-.177-.028-.308-.084-.392-.055-.087-.155-.13-.297-.13a.645.645 0 00-.183.026.456.456 0 00-.162.073.4.4 0 00-.11.13.341.341 0 00-.042.173v1.776h-.773zM38.515 14.283c-.269 0-.472-.067-.611-.203-.136-.136-.204-.335-.204-.596v-1.343h-.387v-.6h.193c.105 0 .176-.025.215-.074a.365.365 0 00.057-.219v-.45h.695v.743h.543v.6h-.543v1.542h.502v.6h-.46zM20.056 19.181l-.261-.867h-1.218l-.26.867h-.805l1.201-3.646h.983l1.185 3.646h-.825zm-.862-2.925h-.026l-.402 1.384h.836l-.408-1.384zM23.883 19.38a.902.902 0 01-.078.387.653.653 0 01-.246.282 1.22 1.22 0 01-.46.177 3.295 3.295 0 01-.7.063c-.236 0-.438-.016-.605-.047a1.336 1.336 0 01-.403-.125.55.55 0 01-.224-.199.513.513 0 01-.068-.266c0-.154.045-.274.136-.36a.647.647 0 01.376-.163v-.057a.462.462 0 01-.298-.168.517.517 0 01-.1-.313c0-.073.015-.136.042-.188a.51.51 0 01.115-.141.574.574 0 01.168-.1c.062-.024.125-.043.188-.057v-.02a.813.813 0 01-.371-.314.908.908 0 01-.12-.47c0-.28.095-.502.287-.67.195-.17.491-.255.888-.255.181 0 .336.017.465.052v-.104c0-.147.035-.251.105-.314a.443.443 0 01.308-.1h.433v.575h-.606v.032c.16.076.279.183.356.319a.912.912 0 01.115.465.831.831 0 01-.293.663c-.192.164-.486.246-.883.246-.178 0-.34-.02-.486-.058a.248.248 0 00-.12.22c0 .066.024.118.073.156a.477.477 0 00.256.053h.794c.335 0 .577.07.727.209.153.139.23.336.23.59zm-.726.104a.206.206 0 00-.094-.183c-.063-.041-.172-.062-.329-.062h-.94a.355.355 0 00-.079.115.445.445 0 00-.02.13.23.23 0 00.13.22c.087.049.235.073.444.073h.314c.208 0 .357-.024.444-.073a.23.23 0 00.13-.22zm-.747-1.781c.153 0 .267-.031.34-.094a.352.352 0 00.115-.282v-.063c0-.122-.039-.214-.115-.277-.073-.066-.187-.1-.34-.1-.153 0-.268.034-.345.1-.073.063-.11.155-.11.277v.063c0 .122.037.216.11.282.077.063.192.094.345.094zM25.34 19.244c-.209 0-.395-.033-.559-.1a1.226 1.226 0 01-.418-.286 1.286 1.286 0 01-.255-.455 1.982 1.982 0 01-.084-.596c0-.216.028-.41.084-.585.055-.177.137-.329.245-.454.111-.126.247-.221.407-.288.16-.07.344-.104.55-.104.226 0 .419.038.579.115.164.076.296.18.397.308.105.129.18.279.225.45.049.167.073.342.073.527v.23h-1.76v.042c0 .18.048.325.145.433.098.105.251.157.46.157.16 0 .291-.031.392-.094.101-.066.195-.145.282-.235l.387.48a1.217 1.217 0 01-.48.335c-.196.08-.419.12-.67.12zm-.015-2.299a.465.465 0 00-.371.157.603.603 0 00-.13.407v.042h.96v-.047a.65.65 0 00-.114-.402c-.074-.105-.189-.157-.345-.157zM27.13 19.181V16.44h.773v.465h.032a.841.841 0 01.256-.371c.121-.105.29-.157.506-.157.282 0 .495.094.638.282.146.188.22.456.22.804v1.72h-.774v-1.657c0-.177-.028-.308-.084-.392-.055-.087-.155-.13-.297-.13a.645.645 0 00-.183.026.455.455 0 00-.162.073.4.4 0 00-.11.13.342.342 0 00-.042.173v1.776h-.773zM31.203 19.181c-.268 0-.471-.068-.61-.203-.137-.136-.204-.335-.204-.596v-1.343h-.387v-.6h.193c.105 0 .176-.025.214-.074a.366.366 0 00.058-.22v-.448h.695v.742h.543v.6h-.543v1.542h.501v.6h-.46z" fill="#000" /></symbol><symbol fill="none" viewBox="0 0 40 25" id="ic-wallet-paytrust-dark"><path d="M12.731 10.2v2.5c-.006.144.015.289.063.425.04.117.105.223.19.313.08.08.176.14.282.178.11.04.228.06.347.059.119 0 .236-.028.343-.081a.995.995 0 00.282-.216c.08-.092.144-.198.187-.312.046-.111.07-.23.069-.35v-2.5h1.184v3.93c0 .307-.066.61-.19.888-.12.274-.291.522-.507.728a2.374 2.374 0 01-1.656.67l-.603-.007v-1.153h.656a.963.963 0 00.313-.053c.11-.035.215-.086.312-.15a1.25 1.25 0 00.406-.519l-.393.16c-.128.052-.265.08-.403.08a2.187 2.187 0 01-.8-.14 1.91 1.91 0 01-1.097-1.078 2.221 2.221 0 01-.154-.872v-2.5h1.17zm-3.784-.147c.145 0 .29.019.431.053.142.037.28.087.413.15.134.063.262.137.384.222.12.084.233.176.34.275l.444-.522h.291v4.397h-.275l-.444-.606c-.11.094-.225.184-.344.269-.121.083-.25.156-.384.218-.138.062-.281.111-.428.147-.14.035-.284.053-.428.053a2.541 2.541 0 01-.89-.156c-.557-.205-1-.636-1.22-1.187a2.5 2.5 0 01-.18-.985 2.4 2.4 0 01.18-.937 2.19 2.19 0 011.219-1.219c.283-.116.585-.174.89-.172zM4.044 8.716a2.378 2.378 0 011.2.325c.353.207.65.5.862.85a2.303 2.303 0 01.331 1.19c.004.316-.06.63-.187.919a2.375 2.375 0 01-1.281 1.26 2.4 2.4 0 01-.938.184h-1.19v1.184H1.637V8.716h2.407zm20.137 0L21.706 9.9h-3.65v4.728h-1.181V9.9h-2.381V8.716h9.687zM8.96 11.194a1.21 1.21 0 00-.44.078 1 1 0 00-.363.231 1.138 1.138 0 00-.24.372 1.544 1.544 0 000 1.025c.054.14.136.27.24.378.104.101.227.18.363.231.14.052.29.079.44.079a.972.972 0 00.441-.104c.136-.065.26-.155.362-.265.102-.115.183-.248.238-.39.061-.142.094-.294.097-.448h.003a1.297 1.297 0 00-.338-.819 1.23 1.23 0 00-.362-.268 1.012 1.012 0 00-.44-.1zM2.841 9.9v2.366h1.203c.16 0 .318-.031.465-.094.143-.06.273-.146.385-.253a1.172 1.172 0 000-1.672A1.144 1.144 0 004.509 10a1.16 1.16 0 00-.465-.094L2.84 9.9zM31.766 8.438v1.784h1.962s-.106.806.403 1.119H31.75v1.322c0 .113.022.226.066.33a.884.884 0 00.806.523h.869v1.106h-.87a1.995 1.995 0 01-1.424-.578 1.914 1.914 0 01-.59-1.39V11.33h-2.813a.266.266 0 00-.197.085.256.256 0 00-.081.197.272.272 0 00.08.203c.05.055.123.086.198.084h1.165c.186 0 .37.033.544.097.164.062.314.154.444.272.132.115.239.256.312.415a1.377 1.377 0 010 1.078 1.45 1.45 0 01-.312.444 1.412 1.412 0 01-.444.313c-.172.072-.357.11-.544.11h-3.084l-.381-.516a2.777 2.777 0 01-.628.421 2.045 2.045 0 01-.36.128 1.5 1.5 0 01-.372.047 2.113 2.113 0 01-.787-.143 2.014 2.014 0 01-.647-.41 1.9 1.9 0 01-.434-.65c-.11-.27-.164-.56-.16-.853v-.516c.075-.35 1.15-1.125 1.15-1.125v1.654c-.002.135.023.27.072.396.042.11.105.21.188.294.078.08.173.143.278.185.109.04.224.06.34.059a.704.704 0 00.335-.081.96.96 0 00.278-.21.984.984 0 00.184-.312.878.878 0 00.069-.344v-2.44h1.169v3.318h2.812c.075.001.146-.03.197-.084a.256.256 0 00.081-.197.153.153 0 00-.08-.156.47.47 0 00-.198-.038H27.81c-.188.001-.373-.036-.547-.11a1.488 1.488 0 01-.446-.312 1.45 1.45 0 01-.313-.447 1.349 1.349 0 01-.09-.568 1.338 1.338 0 01.109-.547c.138-.338.406-.606.744-.744.172-.074.359-.112.547-.11h2.812v-1.78h1.14zm3.543.062c.114.039.22.097.313.172.081.072.148.16.197.256.05.097.074.204.072.313 0 .054-.007.109-.02.162a1.023 1.023 0 01-.05.16.96.96 0 01-.08.146.66.66 0 01-.107.122c.063.037.12.08.172.132a.76.76 0 01.132.171.797.797 0 01.084.197c.013.07.018.142.012.213a.747.747 0 01-.084.353.868.868 0 01-.234.278 1.1 1.1 0 01-.344.184 1.379 1.379 0 01-.84 0 1.097 1.097 0 01-.344-.184.865.865 0 01-.235-.278.748.748 0 01-.084-.353c0-.073.01-.146.028-.216a.873.873 0 01.39-.5.573.573 0 01-.106-.122.84.84 0 01-.15-.465.684.684 0 01.072-.313.937.937 0 01.197-.256 1.01 1.01 0 011.01-.172zm2.316 0a.875.875 0 01.494.428.684.684 0 01.053.475 1.023 1.023 0 01-.05.16.96.96 0 01-.081.146.66.66 0 01-.107.122c.131.074.24.182.313.313a.79.79 0 01.081.197.699.699 0 01.006.203.747.747 0 01-.084.353.907.907 0 01-.234.278 1.1 1.1 0 01-.344.184 1.379 1.379 0 01-.84 0 1.15 1.15 0 01-.348-.184.894.894 0 01-.23-.278.748.748 0 01-.085-.353.783.783 0 01.112-.412.873.873 0 01.306-.304.573.573 0 01-.106-.122.672.672 0 01-.081-.147.707.707 0 01-.053-.156 1.002 1.002 0 010-.162.645.645 0 01.072-.313.815.815 0 01.197-.256 1.01 1.01 0 011.009-.172zm-2.881 1.613a.641.641 0 00-.169.096.459.459 0 00-.113.144.396.396 0 000 .35.46.46 0 00.113.135c.051.038.108.069.169.09.135.042.28.042.415 0a.544.544 0 00.17-.09.427.427 0 00.115-.135.411.411 0 00.04-.175.411.411 0 00-.156-.319.554.554 0 00-.169-.096.647.647 0 00-.415 0zm2.3 0a.641.641 0 00-.169.096.459.459 0 00-.112.144.372.372 0 000 .35.46.46 0 00.112.135c.051.038.108.069.169.09.135.042.28.042.415 0a.58.58 0 00.17-.09.418.418 0 00.112-.135.372.372 0 000-.35.419.419 0 00-.113-.144.596.596 0 00-.169-.096.647.647 0 00-.415 0zm.212-1.144a.4.4 0 00-.15.028.34.34 0 00-.203.175.313.313 0 000 .256c.02.04.048.075.081.103a.39.39 0 00.122.069.435.435 0 00.416-.069.291.291 0 00.081-.103c.02-.04.031-.083.031-.128a.33.33 0 00-.113-.234.388.388 0 00-.121-.07.37.37 0 00-.144-.027zm-2.3 0a.4.4 0 00-.15.028.33.33 0 00-.231.3.25.25 0 00.031.128c.02.04.047.075.081.103a.34.34 0 00.12.069c.1.037.21.037.312 0a.406.406 0 00.118-.069.29.29 0 00.082-.103.25.25 0 00.015-.125.33.33 0 00-.112-.234.406.406 0 00-.119-.07.397.397 0 00-.147-.027z" fill="#F3BA0C" /><path d="M18.2 10.625c.284.313 1.622 1.944 2.047 3.903 0 .031.053.038.062 0 .266-.712 1.944-4.728 6.375-5.566.038 0 .041-.062 0-.065-.828-.078-3.884-.122-6.406 2.96-.025.03-.06.03-.078 0a2.447 2.447 0 00-1.972-1.294.038.038 0 00-.028.062z" fill="#fff" /></symbol><symbol fill="none" viewBox="0 0 43 27" id="ic-wallet-paytrust-light"><path d="M14.139 11.512v2.612c-.007.151.015.302.065.444.042.122.11.233.2.327a.776.776 0 00.293.186c.116.042.239.063.363.062.124 0 .247-.03.359-.085.11-.057.21-.133.294-.225a1.07 1.07 0 00.196-.327.946.946 0 00.071-.366v-2.612h1.238v4.108c0 .32-.069.636-.2.927a2.343 2.343 0 01-.528.761c-.225.217-.489.39-.777.51a2.39 2.39 0 01-.954.189l-.63-.007v-1.204h.686c.11 0 .221-.02.326-.056.116-.037.226-.09.327-.157a1.308 1.308 0 00.425-.542l-.412.167a1.14 1.14 0 01-.421.085 2.287 2.287 0 01-.836-.147 1.994 1.994 0 01-1.146-1.127c-.114-.29-.169-.6-.16-.91v-2.613h1.22zm-3.955-.154c.152.001.304.02.451.056a2.731 2.731 0 01.833.389c.125.087.243.183.356.287l.463-.545h.304v4.594h-.287l-.464-.634a5.01 5.01 0 01-.36.281 2.71 2.71 0 01-.4.229 2.607 2.607 0 01-.448.153 1.89 1.89 0 01-.448.056 2.652 2.652 0 01-.93-.163A2.181 2.181 0 017.98 14.82a2.612 2.612 0 01-.189-1.029 2.508 2.508 0 01.19-.98 2.284 2.284 0 011.273-1.273 2.4 2.4 0 01.93-.18zM5.061 9.961a2.485 2.485 0 011.254.34c.37.216.679.522.901.888a2.407 2.407 0 01.346 1.244c.004.33-.063.657-.196.96a2.481 2.481 0 01-1.338 1.316c-.31.129-.644.194-.98.192H3.804v1.238H2.547V9.96H5.06zm21.042 0l-2.586 1.237h-3.814v4.94h-1.235v-4.94H15.98V9.961h10.123zm-15.906 2.59a1.266 1.266 0 00-.46.081 1.044 1.044 0 00-.379.242 1.188 1.188 0 00-.251.388 1.613 1.613 0 000 1.071c.057.147.142.282.251.395.108.106.237.188.38.242.147.054.302.082.46.082.16 0 .317-.037.46-.108.142-.069.27-.163.379-.278.106-.12.19-.258.248-.408.064-.147.098-.306.101-.467h.003a1.217 1.217 0 00-.104-.467 1.288 1.288 0 00-.627-.67 1.057 1.057 0 00-.46-.104zm-6.393-1.353v2.472h1.257a1.294 1.294 0 00.888-.362 1.224 1.224 0 000-1.747 1.195 1.195 0 00-.401-.258 1.21 1.21 0 00-.487-.098l-1.257-.007zm30.223-1.526v1.864h2.05s-.11.843.422 1.17H34.01v1.38a.876.876 0 00.068.347.924.924 0 00.843.545h.907v1.156h-.907a2.084 2.084 0 01-1.49-.604 2 2 0 01-.617-1.453v-1.382h-2.938a.278.278 0 00-.206.089.268.268 0 00-.085.205.284.284 0 00.085.213c.052.058.128.09.206.088h1.218c.194 0 .386.034.568.101.17.065.328.161.463.284.139.12.25.268.327.434.077.175.116.364.114.556a1.42 1.42 0 01-.114.571c-.079.174-.19.331-.327.464a1.478 1.478 0 01-.463.326 1.46 1.46 0 01-.568.114h-3.223l-.399-.538a2.898 2.898 0 01-.656.44c-.12.057-.246.101-.375.134a1.562 1.562 0 01-.389.05 2.205 2.205 0 01-.823-.15 2.106 2.106 0 01-.676-.429 1.985 1.985 0 01-.454-.679 2.285 2.285 0 01-.166-.891v-.539c.078-.366 1.201-1.175 1.201-1.175v1.727c-.001.142.024.282.076.415a.876.876 0 00.486.499.98.98 0 00.356.062.736.736 0 00.35-.085 1 1 0 00.29-.219c.084-.096.15-.206.193-.326a.917.917 0 00.072-.36v-2.55h1.22v3.468h2.94a.278.278 0 00.205-.088.268.268 0 00.085-.206.16.16 0 00-.085-.163.492.492 0 00-.206-.039h-1.224c-.196 0-.39-.038-.571-.114a1.554 1.554 0 01-.467-.327 1.517 1.517 0 01-.327-.467 1.411 1.411 0 01-.095-.594 1.4 1.4 0 01.115-.572 1.42 1.42 0 01.777-.777c.18-.077.375-.116.571-.114h2.94V9.672h1.19zm3.703.065c.118.04.229.101.326.18a.904.904 0 01.206.268.67.67 0 01.075.326.77.77 0 01-.02.17 1.09 1.09 0 01-.052.166 1.011 1.011 0 01-.085.154.698.698 0 01-.11.127.935.935 0 01.179.137c.054.053.1.114.137.18a.833.833 0 01.088.206.843.843 0 01.013.222.782.782 0 01-.088.369.906.906 0 01-.245.29c-.107.085-.229.15-.359.193a1.44 1.44 0 01-.878 0 1.147 1.147 0 01-.36-.193.906.906 0 01-.244-.29.78.78 0 01-.089-.37c0-.075.01-.151.03-.225a.912.912 0 01.408-.522.873.873 0 01-.268-.614.714.714 0 01.075-.326.977.977 0 01.206-.268 1.055 1.055 0 011.055-.18zm2.42 0a.914.914 0 01.516.447c.05.102.076.214.074.327a.777.777 0 01-.02.17c-.012.057-.03.112-.051.166a1.011 1.011 0 01-.085.154.69.69 0 01-.111.127c.137.077.25.19.326.327a.83.83 0 01.085.205c.013.07.015.142.007.213a.78.78 0 01-.089.369.945.945 0 01-.245.29c-.107.085-.228.15-.359.193a1.44 1.44 0 01-.878 0 1.201 1.201 0 01-.362-.193.934.934 0 01-.242-.29.78.78 0 01-.088-.37.816.816 0 01.118-.431.912.912 0 01.32-.316.591.591 0 01-.112-.127.703.703 0 01-.085-.154.736.736 0 01-.055-.163 1.024 1.024 0 010-.17.672.672 0 01.075-.326.85.85 0 01.206-.268 1.055 1.055 0 011.054-.18zm-3.011 1.685a.669.669 0 00-.177.101.48.48 0 00-.117.15.414.414 0 000 .366.48.48 0 00.117.14.63.63 0 00.177.095.737.737 0 00.434 0 .567.567 0 00.176-.094.448.448 0 00.121-.14.43.43 0 00.043-.184.43.43 0 00-.164-.333.582.582 0 00-.176-.1.675.675 0 00-.434 0zm2.403 0a.668.668 0 00-.176.101.482.482 0 00-.118.15.389.389 0 000 .366c.03.054.07.102.118.14a.65.65 0 00.176.095.737.737 0 00.434 0 .607.607 0 00.177-.094.438.438 0 00.117-.14.389.389 0 000-.366.437.437 0 00-.117-.15.62.62 0 00-.177-.102.676.676 0 00-.434 0zm.222-1.195a.417.417 0 00-.157.03.356.356 0 00-.212.182.326.326 0 000 .268c.02.041.05.078.085.108a.41.41 0 00.127.072.455.455 0 00.434-.072.302.302 0 00.085-.108.301.301 0 00.033-.134.345.345 0 00-.118-.245.404.404 0 00-.127-.072.383.383 0 00-.15-.029zm-2.403 0a.416.416 0 00-.157.03.345.345 0 00-.242.313.26.26 0 00.033.134c.02.042.049.079.085.107a.355.355 0 00.124.072.474.474 0 00.327 0 .424.424 0 00.124-.071.305.305 0 00.085-.108.261.261 0 00.016-.13.345.345 0 00-.118-.245.423.423 0 00-.124-.073.414.414 0 00-.153-.029z" fill="#555" /><path d="M19.854 11.958c.297.327 1.694 2.031 2.139 4.078 0 .033.055.04.065 0 .277-.744 2.03-4.94 6.661-5.815.04 0 .043-.065 0-.069-.865-.081-4.059-.127-6.694 3.093-.026.032-.062.032-.081 0a2.557 2.557 0 00-2.06-1.352.04.04 0 00-.03.065z" fill="#F3BA0C" /></symbol><symbol fill="none" viewBox="0 0 16 16" id="ic-wallet-platforms"><path d="M16 8c0-.56-.34-1.06-.9-1.3l-1.3-.57 1.31-.57c.55-.24.9-.74.9-1.3s-.34-1.06-.9-1.3L8.69.14c-.44-.19-.94-.19-1.37 0L.9 2.95c-.56.24-.9.74-.9 1.3s.34 1.06.9 1.3l1.3.58-1.3.57C.34 6.94 0 7.44 0 8s.34 1.06.9 1.3l1.3.57-1.3.58c-.56.24-.9.74-.9 1.3s.34 1.06.9 1.3l6.42 2.81c.21.09.45.14.68.14.23 0 .47-.05.69-.14l6.42-2.81c.55-.24.9-.74.9-1.3s-.34-1.06-.9-1.3l-1.31-.58 1.3-.57c.56-.24.9-.74.9-1.3zM.94 4.25c0-.18.12-.35.33-.44L7.69 1a.83.83 0 01.62 0l6.42 2.81c.21.09.33.26.33.44s-.12.35-.33.44L8.31 7.5a.83.83 0 01-.62 0L1.27 4.69c-.2-.09-.33-.25-.33-.44zm13.79 7.06c.21.09.33.26.33.44s-.12.35-.33.44L8.31 15c-.19.08-.43.09-.62 0l-6.42-2.81c-.21-.09-.33-.26-.33-.44s.12-.35.33-.44l2.1-.92 3.94 1.72c.22.1.45.14.69.14.23 0 .47-.05.69-.14l3.94-1.72 2.1.92zm0-2.87l-6.42 2.81a.83.83 0 01-.62 0L1.28 8.44C1.07 8.35.94 8.19.94 8c0-.18.12-.35.33-.44l2.1-.92 3.94 1.72c.22.1.46.15.69.15.23 0 .47-.05.69-.14l3.94-1.72 2.1.92c.21.09.33.26.33.44s-.13.34-.33.43z" fill="var(--fill-color1)" /></symbol><symbol fill="none" viewBox="0 0 40 25" id="ic-wallet-skrill-dark"><path fill-rule="evenodd" clip-rule="evenodd" d="M25.818 10.23a1.06 1.06 0 001.066-1.052 1.06 1.06 0 00-1.066-1.053 1.06 1.06 0 00-1.066 1.053 1.06 1.06 0 001.066 1.052zm-8.151.565a7.535 7.535 0 01-1.23 2.084V8.606l-2.215.434v7.746h2.214V14.39c.44.745.76 1.553.95 2.396h2.666c-.263-1.084-1.417-3.083-1.417-3.083a9.616 9.616 0 001.562-2.908h-2.53zm5.855-.08c-1.996.065-3.008.936-3.008 2.704v3.367h2.173V14.04c0-1.052.139-1.502 1.404-1.561v-1.75a3.152 3.152 0 00-.572-.03l.003.015zm-13.048.936c-.275-.016-.905-.056-.905-.625 0-.677.908-.677 1.25-.677a7.551 7.551 0 011.932.34s.317.106.573.216h.022v-1.84h-.032a7.84 7.84 0 00-2.827-.443c-2.433-.016-3.3 1.38-3.3 2.582 0 .69.301 2.318 3.088 2.499.237 0 .863.05.863.625 0 .48-.512.762-1.376.762a6.81 6.81 0 01-2.423-.466v1.937c.942.225 1.91.33 2.879.312 2.378 0 3.444-1.324 3.444-2.636 0-1.49-1.192-2.455-3.191-2.59l.003.004zm14.262 5.135h2.16v-5.984h-2.16v5.984zm6.225-7.808v7.808h2.164v-8.18l-2.16.381-.004-.01zm-3.163 0l2.164-.372v8.18H27.81V8.978h-.013z" fill="#6C2556" /></symbol><symbol fill="none" viewBox="0 0 42 28" id="ic-wallet-skrill-light"><path fill-rule="evenodd" clip-rule="evenodd" d="M27.08 11.625c.616 0 1.114-.492 1.114-1.1 0-.607-.498-1.1-1.113-1.1-.616 0-1.114.493-1.114 1.1 0 .608.498 1.1 1.114 1.1zm-8.517.591a7.874 7.874 0 01-1.285 2.177V9.928l-2.314.454v8.093h2.313v-2.503a8.63 8.63 0 01.992 2.503h2.786c-.274-1.132-1.48-3.22-1.48-3.22a10.047 10.047 0 001.632-3.039h-2.644zm6.118-.085c-2.086.069-3.143.98-3.143 2.826v3.518h2.27v-2.868c0-1.1.146-1.57 1.468-1.632v-1.827a3.289 3.289 0 00-.598-.033l.003.016zm-13.634.98c-.287-.017-.945-.06-.945-.654 0-.708.949-.708 1.306-.708.686.03 1.365.15 2.019.356 0 0 .33.111.598.225h.023v-1.922h-.033a8.19 8.19 0 00-2.955-.463c-2.541-.017-3.447 1.442-3.447 2.698 0 .722.314 2.422 3.226 2.611.248 0 .902.052.902.653 0 .502-.535.796-1.437.796a7.116 7.116 0 01-2.532-.486v2.023c.984.236 1.995.346 3.008.327 2.485 0 3.599-1.384 3.599-2.755 0-1.556-1.246-2.565-3.335-2.705l.003.003zm14.903 5.364h2.258v-6.253H25.95v6.253zm6.505-8.158v8.158h2.26V9.928l-2.257.398-.003-.01zm-3.305 0l2.26-.389v8.547h-2.247v-8.158h-.014z" fill="#6C2556" /></symbol><symbol fill="none" viewBox="0 0 50 11" id="ic-wallet-sticpay"><path d="M4.301.013A5.32 5.32 0 017.06.738l-.848 2.004a4.07 4.07 0 00-1.864-.593.947.947 0 00-.636.186.701.701 0 00-.22.555c-.007.222.06.44.19.62.242.286.516.544.818.766.45.335.83.756 1.119 1.237.25.45.376.96.369 1.475a2.965 2.965 0 01-.942 2.334 3.84 3.84 0 01-2.626.848c-.45.003-.9-.05-1.335-.162A3.437 3.437 0 010 9.505v-2.36a5.59 5.59 0 001.233.602 3.92 3.92 0 001.272.246c.257.018.513-.057.72-.212a.734.734 0 00.245-.593.795.795 0 00-.075-.34 1.63 1.63 0 00-.22-.317c-.094-.11-.349-.34-.755-.7a4.381 4.381 0 01-1.093-1.27 3.174 3.174 0 01-.352-1.475 3.056 3.056 0 01.424-1.59c.282-.47.693-.85 1.186-1.092a3.752 3.752 0 011.716-.39zM22.881 0a5.607 5.607 0 013.08.886l-.944 2.059a6.314 6.314 0 00-1.097-.559 2.894 2.894 0 00-1.039-.19 1.765 1.765 0 00-1.27.529 3.538 3.538 0 00-.848 1.45 6.14 6.14 0 00-.318 2.003c-.036.478.09.955.36 1.352.255.304.638.47 1.034.445a4.518 4.518 0 001.077-.136c.435-.123.86-.28 1.27-.47v2.178a6.564 6.564 0 01-2.821.605 3.28 3.28 0 01-2.568-1c-.602-.664-.898-1.61-.898-2.834a8.101 8.101 0 01.652-3.292A5.091 5.091 0 0120.34.763 4.438 4.438 0 0122.88 0zm-8.474.153l-.424 2.177h-2.051l-1.52 7.688H7.907L9.425 2.33h-2.03L7.819.153h6.588zm3.424 0l-1.976 9.864H13.31L15.288.153h2.542zm14.28.767a2.71 2.71 0 01.897 2.186 3.387 3.387 0 01-1.097 2.67 4.394 4.394 0 01-3.013.965h-.55l-.645 3.277H25.2L27.178.152h2.39A3.77 3.77 0 0132.11.92zm7.754-.767l.783 9.864h-2.44l-.073-1.847h-2.86l-.806 1.848h-2.6l4.77-9.865h3.225zm4.77 0l.573 3.657 2-3.657H50l-3.92 6.033L45.305 10h-2.509l.772-3.814L42.05.153h2.584zM37.97 1.725c-.1.383-.23.757-.39 1.118l-1.402 3.208h1.877l-.11-2.86v-.58c0-.34 0-.636.025-.886zm-8.326.58h-.381l-.45 2.28h.424c.358.013.703-.13.945-.394a1.44 1.44 0 00.327-1.004.905.905 0 00-.23-.64.846.846 0 00-.635-.242z" fill="#fff" /></symbol><symbol fill="none" viewBox="0 0 40 25" id="ic-wallet-sticpay-dark"><path d="M7.063 9.383a3.325 3.325 0 011.724.453l-.53 1.252a2.545 2.545 0 00-1.165-.37.592.592 0 00-.397.116.438.438 0 00-.138.347.623.623 0 00.12.387c.15.18.322.34.51.48.282.209.52.472.7.772.156.282.235.6.23.922.03.55-.185 1.084-.588 1.46a2.4 2.4 0 01-1.642.529 3.256 3.256 0 01-.834-.1 2.15 2.15 0 01-.678-.316V13.84c.24.157.5.283.77.376.255.095.524.147.795.154a.672.672 0 00.45-.133.459.459 0 00.154-.37.497.497 0 00-.047-.212 1.02 1.02 0 00-.138-.199 6.882 6.882 0 00-.472-.437 2.737 2.737 0 01-.682-.794 1.983 1.983 0 01-.22-.922 1.91 1.91 0 01.264-.993c.176-.295.433-.532.742-.683.333-.165.7-.248 1.072-.244zm11.613-.008a3.505 3.505 0 011.925.554l-.59 1.287a3.953 3.953 0 00-.686-.35 1.813 1.813 0 00-.65-.119 1.103 1.103 0 00-.794.331 2.213 2.213 0 00-.53.906 3.837 3.837 0 00-.198 1.252c-.022.3.057.597.225.845.16.19.399.294.646.278.227 0 .453-.03.673-.085a5.37 5.37 0 00.794-.293v1.36a4.102 4.102 0 01-1.763.38 2.05 2.05 0 01-1.605-.626c-.376-.415-.561-1.006-.561-1.771-.01-.707.13-1.408.408-2.058.228-.57.616-1.06 1.117-1.414a2.774 2.774 0 011.589-.477zm-5.297.096l-.264 1.36h-1.283l-.95 4.805H9.317l.949-4.804h-1.27l.266-1.361h4.118zm2.14 0l-1.235 6.165h-1.59L13.93 9.47h1.589zm8.925.48c.386.344.593.848.561 1.365.032.631-.22 1.243-.686 1.669a2.746 2.746 0 01-1.883.603h-.344l-.402 2.048h-1.566l1.237-6.165h1.494a2.357 2.357 0 011.589.48zm4.846-.48l.49 6.165h-1.525l-.046-1.155h-1.787l-.503 1.155h-1.626l2.982-6.166h2.015zm2.982 0l.358 2.285 1.25-2.286h1.745l-2.45 3.771-.484 2.384h-1.568l.482-2.384-.948-3.77h1.615zm-4.166.982c-.062.24-.143.473-.243.699l-.877 2.005h1.174l-.07-1.787v-.363c0-.212 0-.398.016-.554zm-5.204.363h-.238l-.28 1.425h.264a.761.761 0 00.59-.247.901.901 0 00.205-.627.566.566 0 00-.143-.4.529.529 0 00-.398-.151z" fill="#F25822" /></symbol><symbol fill="none" viewBox="0 0 43 27" id="ic-wallet-sticpay-light"><path d="M7.848 10.66a3.474 3.474 0 011.802.474l-.554 1.309a2.658 2.658 0 00-1.217-.387.619.619 0 00-.416.121.458.458 0 00-.144.363.65.65 0 00.125.404c.158.188.337.356.534.5.294.22.542.494.73.809.164.294.246.626.242.963a1.936 1.936 0 01-.615 1.524 2.508 2.508 0 01-1.716.554 3.408 3.408 0 01-.872-.105 2.245 2.245 0 01-.708-.33v-1.54c.251.163.522.294.805.392.266.1.547.153.83.16a.702.702 0 00.471-.138.48.48 0 00.16-.387.52.52 0 00-.049-.222 1.065 1.065 0 00-.144-.207 7.16 7.16 0 00-.493-.457 2.862 2.862 0 01-.713-.83 2.073 2.073 0 01-.23-.963 1.995 1.995 0 01.277-1.038c.184-.307.452-.555.774-.713a2.45 2.45 0 011.121-.255zm12.134-.007a3.662 3.662 0 012.012.578l-.618 1.345a4.117 4.117 0 00-.716-.366 1.89 1.89 0 00-.678-.124 1.152 1.152 0 00-.83.346 2.31 2.31 0 00-.554.946 4.01 4.01 0 00-.207 1.309c-.024.312.059.624.235.883a.813.813 0 00.675.29c.237 0 .473-.03.703-.088.285-.08.562-.183.83-.307v1.422a4.286 4.286 0 01-1.843.395c-.627.04-1.24-.2-1.677-.652-.393-.435-.586-1.052-.586-1.851a5.291 5.291 0 01.426-2.15 3.324 3.324 0 011.168-1.479 2.898 2.898 0 011.66-.497zm-5.535.1l-.276 1.421h-1.34l-.993 5.02h-1.634l.99-5.02H9.868l.277-1.422h4.303zm2.237 0l-1.29 6.441H13.73l1.292-6.442h1.66zm9.325.5c.403.36.62.887.586 1.428a2.214 2.214 0 01-.716 1.743 2.87 2.87 0 01-1.968.63h-.36l-.42 2.14h-1.636l1.293-6.442h1.56a2.463 2.463 0 011.661.501zm5.064-.5l.512 6.441H29.99l-.047-1.206h-1.868l-.526 1.206H25.85l3.116-6.442h2.106zm3.115 0l.374 2.387 1.306-2.388h1.824l-2.56 3.94-.506 2.491h-1.638l.503-2.49-.99-3.941h1.688zm-4.352 1.026a4.71 4.71 0 01-.255.73l-.915 2.095h1.225l-.072-1.868v-.379c0-.221 0-.415.017-.578zm-5.438.379h-.248l-.294 1.489h.277a.796.796 0 00.617-.258.942.942 0 00.213-.655.592.592 0 00-.15-.419.552.552 0 00-.415-.157z" fill="#F25822" /></symbol><symbol fill="none" viewBox="0 0 16 16" id="ic-wallet-trade-types"><path d="M15.5 15a.5.5 0 01.09.992L15.5 16h-8a.5.5 0 01-.09-.992L7.5 15h8zM4.784 1.089l.07.057 3 3a.5.5 0 01-.638.765l-.07-.057L5 2.707V15.5a.5.5 0 01-.41.492L4.5 16a.5.5 0 01-.492-.41L4 15.5V2.707L1.854 4.854a.5.5 0 01-.638.057l-.07-.057a.5.5 0 01-.057-.638l.057-.07 3-3a.5.5 0 01.638-.057zM11.5 15a.463.463 0 01-.151-.023l-.04-.015a.497.497 0 01-.076-.04l-.035-.024-.005-.003-.001-.001-.046-.04a.522.522 0 00.042.037l.01.007a.475.475 0 01-.04-.033l-3.012-3.011a.5.5 0 01.638-.765l.07.057L11 13.292V.5a.5.5 0 01.41-.492L11.5 0a.5.5 0 01.492.41L12 .5v12.792l2.146-2.146a.5.5 0 01.638-.057l.07.057a.5.5 0 01.057.638l-.057.07-3.013 3.012a.476.476 0 01-.19.11.484.484 0 01-.046.013l-.036.005h-.002l-.014.003-.026.001h.02l.019-.004L11.5 15zm-3-15a.5.5 0 01.09.992L8.5 1h-8A.5.5 0 01.41.008L.5 0h8z" fill="var(--fill-color1)" /></symbol><symbol fill="none" viewBox="0 0 176 176" id="ic-wallet-transactions-empty"><path fill="#fff" d="M0 0h176v176H0z" /><g clip-path="url(#ic-wallet-transactions-empty_clip0)"><path d="M121.478 96.522V79.783L158 105.653l-36.522 25.869v-16.739H71.565v-18.26h49.913z" fill="#85ACB0" /><path opacity=".6" d="M54.522 79.78v16.74L18 70.346l36.522-25.87v16.74h51.435V79.78H54.522z" fill="#85ACB0" /><path d="M157.391 26.826L147.652 18 20.435 149.174 29.87 158 157.39 26.826z" fill="#FF444F" /></g><defs></defs></symbol><clipPath id="ic-wallet-transactions-empty_clip0"><path fill="#fff" transform="translate(18 18)" d="M0 0h140v140H0z" /></clipPath><symbol fill="none" viewBox="0 0 16 16" id="ic-wallet-wallets"><path d="M0 1.998A2 2 0 012 0h9.5A2.5 2.5 0 0114 2.5l.001 1c.525.395.89.991.978 1.674l.016.162L15 5.5l.001 2c.607.457.999 1.183.999 2v1c0 .818-.392 1.543-.999 2l-.001 1a2.5 2.5 0 01-2.336 2.495L12.5 16h-10a2.5 2.5 0 01-2.495-2.336L0 13.5V1.998zm1 1.734V13.5a1.5 1.5 0 001.356 1.493L2.5 15h10a1.5 1.5 0 001.493-1.355L14 13.5v-.55c-.161.033-.329.05-.5.05h-2A2.5 2.5 0 019 10.5v-1A2.5 2.5 0 0111.5 7h2c.171 0 .339.017.5.05V5.5a1.5 1.5 0 00-1.355-1.493L12.52 4H2a1.99 1.99 0 01-1-.268zM13.5 8h-2A1.5 1.5 0 0010 9.5v1a1.5 1.5 0 001.5 1.5h2a1.494 1.494 0 00.714-.18l-.06.03c.043-.02.085-.043.125-.068l-.065.037a1.5 1.5 0 00.123-.074l-.058.037a1.49 1.49 0 00.11-.073l-.052.036a1.54 1.54 0 00.115-.085l-.064.049c.038-.028.074-.057.11-.088l-.046.039c.038-.032.074-.065.109-.1l-.064.06c.033-.029.065-.06.095-.092l-.031.033c.031-.032.061-.065.09-.098l-.059.065c.033-.034.064-.07.093-.108l-.035.043c.027-.033.053-.066.077-.1l-.042.057c.029-.037.056-.077.082-.117l-.04.06c.024-.033.046-.067.066-.102l-.026.042c.024-.038.047-.078.068-.119l-.042.077a1.489 1.489 0 00.18-.476l.02-.136L15 10.5v-1l-.007-.149-.02-.136a1.49 1.49 0 00-.18-.475l.042.075a1.49 1.49 0 00-.068-.118l.026.043a1.536 1.536 0 00-.066-.103l.04.06a1.507 1.507 0 00-.082-.117l.042.057a1.522 1.522 0 00-.077-.1l.035.043a1.5 1.5 0 00-.093-.108l.058.065a1.524 1.524 0 00-.09-.098l.032.033a1.508 1.508 0 00-.095-.092l.064.06a1.499 1.499 0 00-.11-.1l.046.04a1.517 1.517 0 00-.11-.09l.065.05a1.518 1.518 0 00-.114-.085l.05.036a1.511 1.511 0 00-.109-.073l.059.037a1.499 1.499 0 00-.124-.074l.065.037a1.495 1.495 0 00-.124-.068l.06.03a1.51 1.51 0 00-.114-.055l.054.025a1.48 1.48 0 00-.137-.058l.083.033A1.495 1.495 0 0013.5 8zM12 9a1 1 0 110 2 1 1 0 010-2zm-.5-8H2a1 1 0 00-.942.663l-.031.107a1.003 1.003 0 00.856 1.223L2 3h11v-.5a1.5 1.5 0 00-1.355-1.493L11.5 1z" fill="var(--fill-color1)" /></symbol><symbol fill="none" viewBox="0 0 60 16" id="ic-wallet-webmoney"><path fill-rule="evenodd" clip-rule="evenodd" d="M52.07.68a7.366 7.366 0 013.23.74c.155.075.305.155.46.24l-.68.605-1-1.05-1.72 1.5-1.025-1.105L48.11 4.5l2.055 2.25-.81.705 2.025 2.25-.8.705 2.92 3.2 1.715-1.57 1.5 1.685a8.36 8.36 0 01-.97.64A7.335 7.335 0 1152.11.68" fill="#fff" /><path fill-rule="evenodd" clip-rule="evenodd" d="M50.725 7.54l1.755-1.57 1.575 1.74-1.75 1.57-1.58-1.74zm1.245 3.005l1.755-1.565 1.58 1.74-1.755 1.565-1.58-1.74zm-2.5-5.98l1.755-1.57L52.8 4.74l-1.755 1.565-1.575-1.74zm3.22-.845l1.315-1.175L55.19 3.85l-1.32 1.175-1.18-1.305zm2.335 5.385L56.34 7.93l1.185 1.305-1.315 1.175-1.185-1.305zm1.155 2.635l1.32-1.175 1.18 1.31-1.315 1.175-1.185-1.31zm.53-6.04l.88-.785.79.87-.88.785-.79-.87zm-1.12-2.59l.88-.78.79.87-.88.785-.79-.875zm2.245 5.175l.875-.785.79.87-.875.785-.79-.87zM53.9 6.345l1.315-1.175L56.4 6.475 55.085 7.65 53.9 6.345zM3.94 6.74h-.055L2.77 10.905h-.905L.5 4.985h.94l.945 4.42h.06l1.095-4.42h.745l1.17 4.42h.06l.86-4.42h.985l-1.365 5.92h-.91L3.94 6.74zM8.5 8.415h1.925c-.04-.875-.47-1.225-.925-1.225-.455 0-.92.39-1 1.225zM11.09 10v.635a2.964 2.964 0 01-1.5.385c-1.415 0-2-.865-2-2.185s.65-2.19 1.91-2.19c1.05 0 1.7.675 1.7 2.04V9H8.47c0 1 .415 1.445 1.28 1.445A2.56 2.56 0 0011.09 10zm1.755.29c.247.094.51.138.775.13.625 0 1.095-.38 1.095-1.735 0-1.06-.385-1.405-.95-1.405a1.825 1.825 0 00-.92.275v2.735zm0-3.35c.355-.194.75-.3 1.155-.31 1.045 0 1.61.72 1.61 2.055 0 1.56-.76 2.32-2 2.32a3.884 3.884 0 01-1.61-.41v-5.83l.875-.205-.03 2.38zm6.585 2.715h.04l1.8-4.67h1.045v5.92h-.91v-4.29h-.075l-1.715 4.29h-.54l-1.715-4.19h-.08v4.19h-.755v-5.92h1.02l1.885 4.67zm6.765-.835c0-1.13-.465-1.605-1.035-1.605-.57 0-1.035.5-1.035 1.605s.44 1.6 1.035 1.6 1.035-.455 1.035-1.6zm-2.955 0c0-1.465.81-2.19 1.92-2.19 1.11 0 1.92.725 1.92 2.19 0 1.465-.765 2.18-1.92 2.18-1.155 0-1.92-.755-1.92-2.18zm4.64-1.57a4.255 4.255 0 012.145-.62c1 0 1.39.39 1.39 1.25v3.025h-.875v-2.83c0-.66-.33-.775-.76-.775-.36.02-.711.122-1.025.3v3.305h-.875V7.25zm5.2 1.165H35c-.04-.875-.47-1.225-.925-1.225-.455 0-.9.39-.995 1.225zM35.68 10v.635a2.965 2.965 0 01-1.5.385c-1.415 0-2-.865-2-2.185s.65-2.19 1.91-2.19c1.055 0 1.7.675 1.7 2.04V9h-2.725c0 1 .41 1.445 1.275 1.445A2.56 2.56 0 0035.68 10zm3.4-3.23H40l-1.5 4.18c-.425 1.15-.934 1.75-1.904 1.75V12c.575 0 .925-.455 1.13-1.07l-1.62-4.18H37l1.075 3.075h.05l.96-3.075" fill="#fff" /></symbol><symbol fill="none" viewBox="0 0 43 27" id="ic-wallet-webmoney-light"><path fill-rule="evenodd" clip-rule="evenodd" d="M35.78 9.098a4.81 4.81 0 012.41.64l-.444.395-.653-.686-1.123.98-.67-.722-2.106 1.887 1.342 1.47-.529.46 1.323 1.47-.523.46 1.907 2.09 1.12-1.025.98 1.1a5.457 5.457 0 01-.634.418 4.79 4.79 0 11-2.374-8.937" fill="#0068A3" /><path fill-rule="evenodd" clip-rule="evenodd" d="M34.902 13.576l1.146-1.025 1.029 1.136-1.143 1.025-1.032-1.136zm.813 1.966l1.146-1.022 1.032 1.136-1.146 1.022-1.032-1.136zm-1.633-3.907l1.146-1.026 1.029 1.14-1.146 1.022-1.029-1.136zm2.102-.551l.858-.768.774.853-.862.767-.77-.852zM37.71 14.6l.86-.768.774.852-.86.768-.773-.853zm.755 1.722l.862-.767.77.855-.858.767-.774-.855zm.344-3.946l.574-.513.516.568-.575.513-.515-.568zm-.731-1.691l.575-.51.516.569-.575.513-.516-.572zm1.465 3.378l.571-.512.516.568-.571.513-.516-.569zm-2.566-1.264l.858-.768.774.852-.859.768-.773-.852zm-32.629.257h-.036l-.728 2.72h-.591l-.891-3.866h.613l.618 2.887h.039l.715-2.887h.486l.764 2.887h.04l.561-2.887h.644l-.892 3.866h-.594l-.748-2.72zm2.977 1.092h1.257c-.026-.571-.307-.8-.604-.8s-.601.255-.653.8zm1.691 1.035v.415a1.93 1.93 0 01-.98.251c-.923 0-1.306-.565-1.306-1.427 0-.862.425-1.43 1.248-1.43.686 0 1.11.441 1.11 1.332v.206H7.305c0 .653.271.944.836.944.313-.013.617-.114.875-.29zm1.149.192c.162.061.334.09.506.085.408 0 .715-.248.715-1.133 0-.693-.251-.918-.62-.918a1.18 1.18 0 00-.6.18v1.786zm0-2.188c.232-.127.49-.196.754-.202.683 0 1.052.47 1.052 1.342 0 1.018-.496 1.515-1.306 1.515a2.536 2.536 0 01-1.052-.268v-3.807l.572-.134-.02 1.554zm4.298 1.773h.027l1.175-3.05h.683v3.866h-.595v-2.801h-.049l-1.12 2.801h-.352l-1.12-2.736h-.053v2.736h-.493V11.91h.666l1.232 3.05zm4.42-.545c0-.738-.304-1.049-.676-1.049-.372 0-.676.327-.676 1.049 0 .721.287 1.045.676 1.045.389 0 .676-.298.676-1.045zm-1.93 0c0-.957.53-1.43 1.254-1.43.725 0 1.254.473 1.254 1.43 0 .956-.5 1.423-1.254 1.423s-1.254-.493-1.254-1.423zm3.027-1.025a2.777 2.777 0 011.401-.406c.653 0 .908.255.908.817v1.975h-.571v-1.848c0-.431-.216-.506-.497-.506-.235.013-.464.08-.67.196v2.158h-.57V13.39zm3.397.758h1.254c-.026-.571-.307-.8-.604-.8s-.588.255-.65.8zm1.698 1.035v.415a1.934 1.934 0 01-.98.251c-.924 0-1.306-.565-1.306-1.427 0-.862.425-1.43 1.247-1.43.69 0 1.11.441 1.11 1.332v.206h-1.779c0 .653.268.944.833.944.313-.013.616-.114.875-.29zm2.223-2.107h.601l-.98 2.73c-.277.75-.61 1.142-1.244 1.142v-.457c.376 0 .604-.297.738-.699l-1.058-2.73h.585l.702 2.009h.033l.627-2.008" fill="#0068A3" /></symbol><symbol fill="none" viewBox="0 0 40 25" id="ic-wallet-zingpay-dark"><path d="M25.097 9.831c.12 0 .238.013.355.04.12.025.24.058.356.098h1.373v.423h-.92v.027c.1.115.18.248.234.39.046.143.07.293.07.443.01.367-.143.719-.416.963-.258.25-.604.389-.963.387 0 0-.449 0-.48.08 0 0-.42.366 0 .559.18.078.371.128.567.147l.064.004c.09.006.202.019.33.019h.084c.202.026.343.026.43.026a.96.96 0 01.365.095c.12.061.228.141.321.238.104.108.19.234.25.372.066.162.1.335.096.51a1.28 1.28 0 01-.506 1.051c-.194.145-.41.253-.642.322a3.21 3.21 0 01-.91.112 2.47 2.47 0 01-1.325-.285.914.914 0 01-.44-.828.845.845 0 01.321-.693c.232-.177.516-.275.808-.28v-.056c-.08-.03-.16-.062-.243-.1a.916.916 0 01-.219-.135.664.664 0 01-.23-.536.692.692 0 01.147-.42c.122-.14.276-.25.45-.32v-.065a1.6 1.6 0 01-.588-.5 1.202 1.202 0 01-.212-.706c-.011-.375.14-.737.414-.993a1.477 1.477 0 011.059-.388zm.211 4.436c-.4-.023-.783.17-.783.642a.56.56 0 00.046.21.516.516 0 00.147.197c.077.063.166.11.263.138.131.04.268.058.404.054.228.01.454-.055.642-.186a.752.752 0 00.253-.542.46.46 0 00-.164-.391.702.702 0 00-.375-.093c-.144-.029-.289-.029-.433-.029zM17.48 8.535v1.13l-1.72 3.748h1.752v.96h-3.208v-.418L16.4 9.68h-2.037V8.535h3.117zm1.824 1.52v4.317h-1.16v-4.316h1.16zm2.784-.224c.396-.028.778.149 1.014.468.01.019.02.038.028.058.121.28.17.587.142.891v3.125h-1.245v-2.945c.003-.196.006-.513-.205-.61a.471.471 0 00-.244-.034.443.443 0 00-.202.06c-.195.125-.195.468-.195.677v2.851h-1.245V9.896h1.245v.256a1.38 1.38 0 01.907-.32V9.83zm2.98.468a.382.382 0 00-.222.064.455.455 0 00-.15.183.926.926 0 00-.077.263c-.016.104-.023.21-.023.314-.008.207.038.413.131.597a.4.4 0 00.344.233.393.393 0 00.362-.23c.092-.179.137-.379.128-.58a1.257 1.257 0 00-.128-.616.404.404 0 00-.365-.228zm-6.335-2.03c.152 0 .297.066.398.18l.046.054c.085.113.13.252.127.394a.641.641 0 01-.176.456.529.529 0 01-.408.177.536.536 0 01-.397-.18.683.683 0 010-.905l.057-.051c.1-.08.224-.123.354-.126l-.001.001z" fill="#fff" /><path d="M38.75 9.962l-1.634 4.81-.112.321-.045.111a4.875 4.875 0 01-.163.364 2.443 2.443 0 01-.27.404l-.076.082a1.117 1.117 0 01-.376.238 1.59 1.59 0 01-.603.106 2.98 2.98 0 01-.44-.032h-.115v-.817l.16.025c.097.015.195.022.293.02a.69.69 0 00.47-.142c.13-.13.22-.293.26-.471l.058-.203-1.67-4.79h1.302l.847 3.274.846-3.275h1.078l.189-.025zm-5.934-.045c.412-.017.816.12 1.133.385.32.31.485.746.452 1.19v3.143h-.86v-.32c-.082.085-.176.159-.279.217a1.47 1.47 0 01-.747.187c-.197 0-.392-.038-.575-.113a1.285 1.285 0 01-.455-.32 1.375 1.375 0 01-.291-.466l-.04-.117a1.705 1.705 0 01-.067-.486 1.498 1.498 0 01.174-.728c.123-.212.308-.382.529-.487a1.72 1.72 0 01.818-.177h.923v-.32a.697.697 0 00-.182-.546.786.786 0 00-.549-.173.89.89 0 00-.471.11.52.52 0 00-.225.32l-.029.1h-.834v-.149c.014-.365.19-.707.481-.929.32-.224.704-.336 1.094-.32zm-3.765-1.084a2.023 2.023 0 011.415.423l.079.093c.274.35.408.793.37 1.239.013.36-.063.718-.222 1.042-.15.28-.394.5-.689.619l-.182.053c-.305.08-.62.119-.937.114v2.149h-1.226V8.833h1.392zm4.395 3.83l-.713.01a.448.448 0 00-.39.16.735.735 0 00-.12.438c-.014.18.04.357.151.498l.045.045a.52.52 0 00.346.131.593.593 0 00.488-.256c.135-.186.203-.412.193-.642v-.385zm-4.48-2.891l-.081.004v1.684a.963.963 0 00.587-.148.826.826 0 00.185-.641 1.03 1.03 0 00-.188-.693.728.728 0 00-.584-.202l.08-.004z" fill="#72C579" /><path d="M7.38 15.816a.805.805 0 00.138.24c.04.057.087.11.138.157.102.096.218.177.343.241.07.034.144.063.218.087a1.51 1.51 0 01.593-.126c.125.001.248.017.37.049.463-.253.73-.758.679-1.283a1.25 1.25 0 00-.962-1.283 2.282 2.282 0 01-.256.019c-.568 0-1.328-.228-1.604-.786-.17-.36 0-.76-.086-1.132a1.392 1.392 0 00-.54-.78 1.355 1.355 0 00-.808-.26 1.263 1.263 0 00-.962 2.137c.24.262.57.422.923.446h.171a1.782 1.782 0 011.674 2.267l-.029.006v.001z" fill="#A8E2C1" /><path d="M4 15.623a1.844 1.844 0 01-.026-.244v-.058a1.76 1.76 0 01.866-1.52h.016c.26-.146.554-.224.853-.224.15 0 .164-.09.305-.055.53-.17.908-.639.962-1.193a1.282 1.282 0 00-1.392-1.312 1.367 1.367 0 00-1.309 1.418 1.578 1.578 0 01-.686 1.44c-.484.26-1.045.07-1.513.392a1.361 1.361 0 00.642 2.516 1.364 1.364 0 001.352-.872 1.85 1.85 0 01-.07-.288z" fill="#93D9E5" /><path d="M11.72 16.877a1.771 1.771 0 01-.985-.212 1.418 1.418 0 01-.584-.532 1.702 1.702 0 01-.183-1.507 1.341 1.341 0 00-2.517.689c-.01.516.29.987.763 1.196.154-.058.316-.091.48-.1a1.513 1.513 0 011.604 1.335c.075.388 0 .798.219 1.167.245.424.697.685 1.186.687a1.366 1.366 0 000-2.73l.016.007z" fill="#A8E2C1" /><path d="M5.603 10.866a1.964 1.964 0 01-1.058-.185 1.49 1.49 0 01-.546-.559 1.176 1.176 0 01-.105-.346 2.038 2.038 0 010-.901 1.363 1.363 0 10-1.241 1.837c.33-.02.658.06.943.229.2.117.366.283.484.483.282.481.077.985.365 1.463a1.374 1.374 0 002.55-.68 1.366 1.366 0 00-1.392-1.34z" fill="#93D9E5" /><path d="M5.5 5.001a1.35 1.35 0 00-1.282 1.055c-.055.289-.048.587-.1.876a1.578 1.578 0 01-.279.676.992.992 0 01-.606.388 4.017 4.017 0 01-.641 0 1.363 1.363 0 00-.4 2.66 1.408 1.408 0 001.631-.642.496.496 0 00.058-.164.764.764 0 000-.228 1.853 1.853 0 01.112-1.003 1.37 1.37 0 01.699-.719c.414-.176.895-.102 1.322-.253.507-.197.85-.676.872-1.219A1.357 1.357 0 005.496 5H5.5v.001z" fill="#93D9E5" /><path d="M11.636 10.903a1.367 1.367 0 00-1.331 1.398 1.65 1.65 0 01-.224.943c-.121.198-.287.364-.485.485-.485.282-1.046.092-1.523.38a1.392 1.392 0 00.167 2.419 1.478 1.478 0 011.103-.012c.276-.132.502-.35.641-.623a1.77 1.77 0 01-.13-.673 1.65 1.65 0 011.092-1.604c.122-.043.25-.063.379-.06h.051c.333.055.674.016.985-.113.429-.252.688-.715.68-1.212a1.363 1.363 0 00-1.405-1.328z" fill="#A8E2C1" /><path d="M9.878 15.187c0-.212.04-.422.116-.62a1.38 1.38 0 00-2.088-.285 1.358 1.358 0 00-.292.378 1.36 1.36 0 00-.096.222c-.024.08-.04.161-.051.244 0 .115 0 .233-.02.35a1.315 1.315 0 01-.048.317 1.987 1.987 0 01-.227.481c-.3.515-.861.821-1.456.795a2.328 2.328 0 01-.26-.022 1.238 1.238 0 00-.27.112 1.386 1.386 0 00-.667 1.213 1.383 1.383 0 102.764-.068c-.019-.262.014-.526.097-.776a1.488 1.488 0 011.45-1.11c.206 0 .41.042.6.122.265-.13.481-.341.618-.603a1.709 1.709 0 01-.17-.75z" fill="#81D9B9" /><path d="M8.66 16.415c.67 0 1.212-.558 1.212-1.247 0-.69-.543-1.248-1.212-1.248-.67 0-1.212.559-1.212 1.248s.542 1.247 1.212 1.247z" fill="#81D9B9" /><path d="M6.245 17.005a1.81 1.81 0 01-.482.068H5.7a1.75 1.75 0 01-1.739-1.758V15.097a.97.97 0 01.02-.135c.009-.057.022-.114.038-.17a1.395 1.395 0 00-1.255-.714 1.366 1.366 0 10.068 2.728c.337-.022.671.056.962.225.212.11.393.27.526.469.289.484.097 1.045.391 1.523.268.413.733.657 1.226.641a1.356 1.356 0 00.32-2.675l-.012.016z" fill="#93D9E5" /><path d="M7.283 18.284a1.366 1.366 0 00-1.038-1.283h-.04c-.04 0-.085.02-.127.03H5.7a1.976 1.976 0 01-.247-.02 1.12 1.12 0 00-.267.11 1.386 1.386 0 00-.667 1.212c.008.44.237.848.61 1.084l.054.035c.065.04.133.073.205.1h.032c.068.022.135.038.203.054h.06c.082.008.163.008.244 0a1.376 1.376 0 001.357-1.321zM5.625 13.547c.753 0 1.364-.6 1.364-1.34 0-.74-.61-1.34-1.364-1.34-.752 0-1.363.6-1.363 1.34 0 .74.61 1.34 1.363 1.34z" fill="#81D9B9" /></symbol><symbol fill="none" viewBox="0 0 43 28" id="ic-wallet-zingpay-light"><path d="M27.058 11.168c.125 0 .25.014.372.04.125.028.25.063.372.104h1.434v.442h-.962v.028c.105.12.188.259.245.409a1.5 1.5 0 01.074.462 1.3 1.3 0 01-.436 1.005c-.27.261-.63.407-1.006.406 0 0-.468 0-.502.083 0 0-.439.383 0 .584.188.082.389.134.593.154l.067.004c.095.006.211.02.345.02h.087c.212.026.359.026.45.026.132.008.262.042.381.1a1.324 1.324 0 01.597.637c.07.17.104.35.1.533a1.33 1.33 0 01-.529 1.099 2.14 2.14 0 01-.67.335 3.36 3.36 0 01-.952.118 2.591 2.591 0 01-1.384-.298.955.955 0 01-.459-.865.883.883 0 01.335-.724c.243-.185.539-.288.845-.292v-.06a3.36 3.36 0 01-.255-.104.954.954 0 01-.228-.14.694.694 0 01-.241-.56.723.723 0 01.154-.439c.128-.147.289-.262.47-.335v-.068a1.673 1.673 0 01-.614-.522 1.257 1.257 0 01-.221-.738c-.012-.392.145-.77.432-1.038.3-.276.698-.421 1.106-.405zm.221 4.635c-.419-.024-.818.178-.818.67a.572.572 0 00.201.426.76.76 0 00.275.144c.137.042.28.06.422.057a1.08 1.08 0 00.67-.195.786.786 0 00.265-.566.48.48 0 00-.17-.409.734.734 0 00-.393-.097c-.15-.03-.301-.03-.452-.03zm-8.18-5.989v1.18l-1.797 3.917h1.83v1.002h-3.35v-.436l2.188-4.467h-2.13V9.814h3.26zm1.907 1.588v4.51h-1.213v-4.51h1.213zm2.909-.234a1.21 1.21 0 011.058.489.42.42 0 01.03.06c.127.294.177.614.148.932v3.265h-1.3v-3.078c.003-.204.006-.536-.214-.636a.493.493 0 00-.256-.037.464.464 0 00-.21.064c-.205.13-.205.488-.205.707v2.979h-1.3v-4.678h1.3v.269c.266-.223.602-.341.949-.336zm3.113.489a.399.399 0 00-.232.067.476.476 0 00-.157.19.967.967 0 00-.08.276 2.16 2.16 0 00-.024.328c-.009.216.04.43.137.623a.418.418 0 00.36.245.41.41 0 00.378-.241 1.21 1.21 0 00.134-.607 1.314 1.314 0 00-.134-.643.422.422 0 00-.382-.238zm-6.62-2.121c.16 0 .311.069.416.187l.048.057a.67.67 0 01.134.412.67.67 0 01-.185.476.552.552 0 01-.426.185.56.56 0 01-.415-.188.714.714 0 010-.945l.06-.054a.612.612 0 01.37-.13h-.001z" fill="#474747" /><path d="M41.323 11.308l-1.707 5.026-.118.335-.047.116a5.142 5.142 0 01-.17.38c-.08.15-.174.291-.282.422l-.08.086a1.166 1.166 0 01-.392.25 1.674 1.674 0 01-.63.11c-.154 0-.307-.01-.46-.033h-.12v-.855l.168.027c.1.016.202.023.305.02a.72.72 0 00.492-.147c.136-.136.23-.307.272-.493l.06-.212-1.746-5.006h1.36l.886 3.422.884-3.422h1.126l.197-.027.002.001zm-6.2-.047a1.73 1.73 0 011.183.402c.334.324.507.78.472 1.243v3.284h-.898v-.335a1.26 1.26 0 01-.292.228c-.238.134-.508.2-.78.195-.206 0-.41-.04-.6-.117a1.34 1.34 0 01-.476-.336 1.435 1.435 0 01-.305-.486l-.04-.122a1.78 1.78 0 01-.07-.508 1.567 1.567 0 01.18-.76c.129-.222.322-.4.553-.51.265-.131.559-.194.855-.185h.965v-.335a.728.728 0 00-.191-.569.821.821 0 00-.573-.181.929.929 0 00-.493.114.544.544 0 00-.235.335l-.03.104h-.872v-.155c.015-.382.199-.738.503-.97a1.861 1.861 0 011.143-.336zm-3.934-1.133a2.114 2.114 0 011.478.442l.082.098c.287.365.426.828.387 1.293.014.377-.065.751-.232 1.09a1.416 1.416 0 01-.72.646l-.19.056a3.614 3.614 0 01-.98.119v2.245h-1.28v-5.989h1.455zm4.591 4.002l-.745.01a.468.468 0 00-.408.167.77.77 0 00-.124.459.748.748 0 00.158.52l.047.047a.543.543 0 00.361.137.62.62 0 00.51-.268c.141-.194.212-.43.201-.67v-.402zm-4.68-3.022l-.084.005v1.76c.215.015.43-.04.613-.156a.863.863 0 00.194-.67 1.077 1.077 0 00-.197-.723.76.76 0 00-.61-.211l.084-.005z" fill="#72C579" /><path d="M8.544 17.423a.838.838 0 00.144.25c.043.06.092.115.145.165.107.1.228.185.358.252.074.035.15.065.228.09a1.58 1.58 0 01.62-.131c.13.001.26.018.386.05.484-.263.763-.791.71-1.34a1.306 1.306 0 00-1.005-1.34c-.09.012-.18.018-.269.02-.593 0-1.387-.238-1.675-.822-.178-.375 0-.794-.09-1.182a1.455 1.455 0 00-.563-.815 1.416 1.416 0 00-.845-.271 1.32 1.32 0 00-1.006 2.231c.25.274.596.441.965.466h.178a1.862 1.862 0 011.75 2.37l-.03.006z" fill="#A8E2C1" /><path d="M5.012 17.22a1.927 1.927 0 01-.027-.255v-.06a1.838 1.838 0 01.905-1.589h.017c.272-.153.579-.234.891-.234.158 0 .171-.094.319-.057a1.457 1.457 0 001.005-1.247 1.34 1.34 0 00-1.455-1.37 1.428 1.428 0 00-1.367 1.48c.05.594-.223 1.17-.717 1.504-.506.272-1.092.074-1.581.41a1.422 1.422 0 00.671 2.629 1.425 1.425 0 001.413-.91 1.934 1.934 0 01-.074-.302z" fill="#93D9E5" /><path d="M13.079 18.53a1.85 1.85 0 01-1.03-.221 1.482 1.482 0 01-.61-.556 1.778 1.778 0 01-.19-1.575 1.401 1.401 0 00-2.63.72 1.34 1.34 0 00.797 1.25c.16-.06.33-.095.502-.104a1.581 1.581 0 011.676 1.395c.078.405 0 .834.228 1.22.256.442.728.715 1.24.716a1.427 1.427 0 000-2.852l.017.007z" fill="#A8E2C1" /><path d="M6.69 12.251c-.38.04-.763-.028-1.106-.194a1.557 1.557 0 01-.57-.583 1.227 1.227 0 01-.11-.362 2.13 2.13 0 010-.942 1.424 1.424 0 10-1.297 1.92 1.72 1.72 0 01.985.239c.209.122.383.296.507.505.294.503.08 1.03.38 1.529a1.436 1.436 0 002.665-.71A1.428 1.428 0 006.69 12.25z" fill="#93D9E5" /><path d="M6.582 6.122a1.41 1.41 0 00-1.34 1.102c-.058.302-.05.614-.104.915a1.65 1.65 0 01-.292.708c-.153.21-.379.353-.633.405a4.196 4.196 0 01-.67 0 1.425 1.425 0 00-.419 2.779 1.471 1.471 0 001.705-.67.543.543 0 00.06-.172.798.798 0 000-.238 1.936 1.936 0 01.118-1.049c.14-.333.4-.601.73-.75.433-.185.936-.108 1.381-.266a1.43 1.43 0 00.912-1.273 1.417 1.417 0 00-1.452-1.491h.004z" fill="#93D9E5" /><path d="M12.994 12.29c-.787.02-1.41.674-1.39 1.46.022.345-.06.689-.235.986-.126.207-.3.38-.506.506-.507.295-1.093.097-1.592.399a1.454 1.454 0 00.174 2.527 1.545 1.545 0 011.153-.013c.288-.138.524-.366.67-.651a1.848 1.848 0 01-.137-.703 1.724 1.724 0 011.142-1.676 1.13 1.13 0 01.396-.064h.054c.347.059.703.018 1.028-.117a1.44 1.44 0 00.71-1.267 1.425 1.425 0 00-1.467-1.387z" fill="#A8E2C1" /><path d="M11.155 16.767c0-.221.04-.441.12-.647a1.442 1.442 0 00-1.983-.45 1.192 1.192 0 00-.198.152 1.426 1.426 0 00-.305.395 1.39 1.39 0 00-.1.231 1.686 1.686 0 00-.055.255c0 .121 0 .244-.02.365a1.37 1.37 0 01-.016.171 1.35 1.35 0 01-.034.161 2.075 2.075 0 01-.238.503c-.313.538-.9.858-1.521.831a2.44 2.44 0 01-.272-.024 1.29 1.29 0 00-.281.118c-.442.268-.707.75-.697 1.267a1.445 1.445 0 102.888-.071 2.06 2.06 0 01.102-.81 1.555 1.555 0 011.514-1.16c.215 0 .428.043.627.127a1.45 1.45 0 00.646-.63 1.786 1.786 0 01-.177-.784z" fill="#81D9B9" /><path d="M9.884 18.049c.7 0 1.266-.584 1.266-1.304 0-.72-.567-1.304-1.266-1.304-.7 0-1.267.584-1.267 1.304 0 .72.567 1.303 1.267 1.303z" fill="#81D9B9" /><path d="M7.361 18.665c-.163.046-.333.07-.502.07h-.067A1.83 1.83 0 014.975 16.9v-.229a1.764 1.764 0 01.06-.318 1.457 1.457 0 00-1.31-.747 1.427 1.427 0 10.07 2.851c.352-.023.702.059 1.006.235.221.115.41.283.55.49.301.506.1 1.092.408 1.591.28.433.766.687 1.28.67a1.417 1.417 0 00.336-2.794l-.014.016z" fill="#93D9E5" /><path d="M8.443 20a1.428 1.428 0 00-1.085-1.34h-.04c-.044 0-.09.02-.135.03h-.395a2.076 2.076 0 01-.258-.02c-.097.026-.19.065-.278.115-.442.268-.707.75-.697 1.266.008.46.247.886.637 1.133l.056.037c.068.041.14.077.215.103h.033c.071.024.141.04.212.058h.064c.084.008.17.008.254 0a1.438 1.438 0 001.418-1.38V20zm-1.729-4.949c.786 0 1.424-.627 1.424-1.4 0-.774-.638-1.401-1.424-1.401-.787 0-1.425.627-1.425 1.4 0 .774.638 1.401 1.425 1.401z" fill="#81D9B9" /></symbol></defs></svg>